<svg width="924" height="205" viewBox="0 0 924 205" fill="none" xmlns="http://www.w3.org/2000/svg">
<path d="M21.3718 120.026C23.0195 123.252 25.9832 124.439 29.0806 125.557C35.9977 128.789 43.2465 130.629 50.8857 131.025C58.9904 131.95 67.0951 131.752 75.1998 130.896C77.5002 130.629 79.8754 130.629 82.1169 130.105C85.7386 129.313 88.9644 129.447 91.6018 132.341C96.0721 135.652 101.027 138.252 106.292 140.05C106.886 140.317 107.415 140.643 108.004 140.841C117.756 144.533 127.904 146.64 138.245 147.828C143.119 148.882 148.062 149.01 153.005 149.208C168.883 149.866 184.562 148.486 200.242 145.849C208.079 144.533 215.852 143.013 223.23 139.857C227.45 138.076 231.468 135.834 234.036 131.886C236.079 128.783 235.748 125.627 233.116 122.99C231.147 120.932 228.595 119.527 225.803 118.967C228.568 113.039 230.216 106.914 230.082 100.323C230.35 98.5471 230.082 96.8353 229.82 95.0538C228.173 85.0393 222.572 77.6622 214.403 72.0611C209.133 67.9098 203.206 65.0103 196.877 62.71C196.021 62.3783 195.165 61.9824 194.309 61.7203C188.05 59.6125 181.727 57.7027 175.136 57.0393C167.363 55.397 159.462 55.0653 151.555 55.1295C151.421 55.1295 151.288 55.2633 151.159 55.3275H149.052C142.134 55.1991 135.41 56.5151 128.562 57.3068C130.21 54.3431 131.13 51.1761 131.922 47.9503C132.58 45.3825 133.634 42.8147 133.174 40.0436C133.174 37.9358 133.372 35.7639 133.174 33.6561C132.516 26.2094 130.076 19.4903 125.133 13.7555C117.098 2.29656 105.57 -0.859725 92.2598 0.188803C91.2755 0.252998 90.2804 0.317194 89.3603 0.450935C84.2247 1.24268 79.1532 2.16282 74.3439 4.20638C67.1593 6.31413 60.5044 9.53996 54.2453 13.6217C47.2785 17.4637 40.818 22.1594 35.0134 27.6003C33.8258 27.9266 33.3015 28.9805 32.4456 29.7723C26.9087 34.9079 21.6393 40.3806 17.2205 46.5701C15.8403 48.4799 14.3852 50.3256 13.0745 52.2407C8.92322 58.6175 5.23198 65.2082 3.05467 72.5907C2.0008 74.8269 1.47118 77.2663 1.01111 79.6362C-1.49251 92.4218 0.219369 103.95 11.0898 112.713L11.5499 113.173C14.1177 116.137 17.5468 117.784 20.8422 119.63C21.0052 119.777 21.1807 119.909 21.3665 120.026H21.3718Z" fill="#FEFEFE"/>
<path d="M225.879 119.097C228.715 119.69 231.218 121.006 233.192 123.114C235.76 125.752 236.156 128.913 234.113 132.011C231.481 135.964 227.463 138.136 223.306 139.982C215.999 143.143 208.156 144.657 200.319 145.973C184.703 148.611 168.959 149.996 153.082 149.338C148.139 149.14 143.201 149.006 138.322 147.953C138.322 147.755 138.322 147.626 138.258 147.428C138.959 147.273 139.689 147.318 140.366 147.557H140.301C143.399 147.755 146.427 148.348 149.524 148.086H156.773C159.073 147.953 161.384 148.482 163.62 147.69H164.412C165.6 147.557 166.787 148.017 167.905 147.295C171.226 147.357 174.536 146.913 177.722 145.979C178.706 145.979 179.766 146.107 180.75 145.513C182.2 145.449 183.649 145.187 185.03 144.657C186.089 144.593 187.079 144.395 188.063 143.871C189.577 143.737 191.096 143.603 192.343 142.619C193.734 142.485 195.114 142.154 196.232 141.298C197.484 141.169 198.607 140.838 199.591 140.046C200.383 139.917 201.175 139.784 201.704 139.126C208.028 136.686 213.688 133.391 218.369 128.453C221.53 125.95 223.574 122.392 225.879 119.097V119.097Z" fill="#B4B4B3"/>
<path d="M92.2422 0.186021C105.552 -0.803661 117.081 2.35797 125.116 13.8864C125.709 16.2563 127.031 18.3694 127.684 20.8035C129.074 25.677 128.743 30.5559 128.475 35.4936C127.753 38.2647 127.095 41.0305 126.239 43.7962C124.458 49.4668 121.558 54.6667 118.728 59.8719C117.541 60.3961 116.423 61.1237 114.973 60.9953C114.973 60.1394 115.433 59.5402 115.765 58.9517C119.584 52.5589 122.612 45.904 124.003 38.591C125.051 32.7974 125.116 27.0626 122.944 21.4615C121.858 17.6167 119.628 14.1931 116.551 11.6449C114.641 9.47298 112.207 8.15697 109.634 6.90516C107.398 5.78174 107.264 5.91548 106.344 8.28537C105.75 9.86886 105.814 11.6449 104.562 12.9663C101.861 12.1745 99.293 10.9227 96.4577 10.789C96.3188 10.6411 96.1646 10.5084 95.9976 10.3931C95.8692 9.07711 96.2651 7.88949 96.7252 6.70187C97.4474 4.8616 96.9873 3.60979 94.8796 3.21391C93.4298 2.75384 92.3117 1.9621 92.2422 0.186021V0.186021ZM214.385 72.1921C222.554 77.8573 228.155 85.1703 229.803 95.1848C230.07 96.9609 230.391 98.6728 230.07 100.454C229.399 106.103 227.187 111.459 223.677 115.936C221.767 118.375 219.462 120.349 217.354 122.527C216.819 122.527 216.498 122.917 216.102 123.185C212.213 125.951 208.131 128.39 203.712 130.23C202.589 129.112 204.108 127.994 203.712 126.871C206.28 125.619 208.72 124.169 211.025 122.457C216.161 118.766 220.58 114.486 222.955 108.425C224.533 106.253 224.4 103.616 224.993 101.182C225.127 98.876 225.127 96.565 224.597 94.3289C224.731 91.761 223.346 89.5837 222.554 87.2138C222.094 85.7641 221.302 85.5662 219.986 86.2884C218.274 87.278 216.76 88.6636 214.781 89.1237C213.622 86.7027 212.186 84.4246 210.501 82.335C211.159 80.7568 212.737 80.2968 214.059 79.4997C215.113 78.9112 215.573 77.9911 215.043 77.0656C214.257 75.5516 214.455 73.8398 214.385 72.1921V72.1921Z" fill="#FDF48B"/>
<path d="M91.6469 132.473C89.0149 129.574 85.7195 129.376 82.162 130.232C79.9205 130.761 77.5506 130.761 75.2449 131.023C75.1807 130.039 74.3248 129.841 73.6614 129.509C71.3611 128.322 68.9217 127.337 66.8781 125.69C64.5082 123.78 61.8067 122.132 60.3516 119.233C62.4647 118.377 64.6366 117.451 66.7444 116.595C70.9652 114.948 74.8491 112.776 78.7382 110.534C79.3267 110.866 79.3267 111.46 79.5246 111.984C80.8964 116.094 83.0186 119.914 85.7837 123.25C87.8968 125.818 89.9992 128.386 92.8345 130.167C93.102 130.499 93.423 130.756 93.6905 131.093C93.423 132.211 92.2461 131.949 91.6469 132.473V132.473Z" fill="#383735"/>
<path d="M11.0876 112.713C0.217184 104.015 -1.4947 92.4861 1.01428 79.6363C1.47435 77.2022 2.00396 74.827 3.05784 72.5908C4.24011 72.5908 4.70553 74.169 5.95734 73.8426C4.30965 80.1659 3.12204 86.4892 4.24546 93.0799C5.62566 101.185 9.84118 107.112 17.2183 110.867C18.3417 111.456 18.866 111.194 19.1977 110.012C19.7861 107.904 20.6421 105.86 20.9738 103.683C21.7013 103.95 22.3593 104.277 23.0815 104.539C25.1251 105.598 27.3666 105.93 29.4743 106.716C29.0143 110.407 27.3024 113.965 27.7624 117.849C24.2049 117.72 20.8454 116.864 17.4858 115.741C15.4422 115.019 13.6608 113.569 11.4889 113.173C11.3823 113 11.2486 112.844 11.093 112.713H11.0876Z" fill="#E9C02A"/>
<path d="M60.2439 119.165C61.6936 122.065 64.3952 123.648 66.7704 125.622C68.8086 127.27 71.2481 128.259 73.5537 129.447C74.2117 129.773 75.0677 129.971 75.1319 130.961C67.0325 131.817 58.9225 132.015 50.8231 131.089C50.6894 129.377 49.3092 128.457 48.4533 127.206C47.3994 125.756 45.7517 124.638 45.6875 122.594C50.6894 121.867 55.4345 120.486 60.2439 119.17V119.165Z" fill="#444342"/>
<path d="M118.82 59.7411C121.656 54.5359 124.555 49.4003 126.331 43.6654C127.187 40.8997 127.845 38.1339 128.573 35.3682C129.696 37.3475 131.076 39.0594 133.184 40.0437C133.644 42.8095 132.59 45.3827 131.932 47.9505C131.141 51.1763 130.22 54.4075 128.573 57.307C126.989 58.3609 125.079 58.0292 123.437 58.821C121.854 58.9547 120.468 60.0728 118.82 59.7411V59.7411Z" fill="#DBBF60"/>
<path d="M214.411 72.1927C214.48 73.9046 214.282 75.5523 215.138 77.2C215.663 78.1843 215.202 79.0456 214.149 79.634C212.833 80.3616 211.313 80.8859 210.591 82.4693C210.003 82.0093 209.468 81.5492 208.879 81.1533C208.815 80.2974 208.152 79.832 207.563 79.3077C206.311 78.1843 204.995 77.1304 203.738 76.0765C204.53 74.6963 205.915 74.1667 207.098 73.2412C207.756 72.7865 208.419 72.0643 207.296 71.4652C205.584 70.545 204.006 69.229 202.026 68.7636C200.582 67.2496 198.335 67.1854 196.891 65.7999V62.9004C203.214 65.0777 209.141 67.9772 214.411 72.1927V72.1927Z" fill="#FDE686"/>
<path d="M45.7523 122.593C45.8218 124.636 47.4695 125.755 48.5234 127.204C49.3793 128.456 50.8291 129.376 50.8933 131.093C43.3382 130.704 35.9315 128.845 29.0882 125.621C29.2861 124.369 28.0343 123.385 28.2322 122.133C32.0519 122.593 35.8769 123.385 39.8249 122.989C41.8043 123.251 43.7141 122.395 45.7576 122.593H45.7523Z" fill="#717070"/>
<path d="M92.2675 0.188477C92.337 1.96455 93.4551 2.8205 95.0332 3.08263C97.1463 3.4785 97.6011 4.73031 96.8789 6.57594C96.4188 7.76356 96.0229 8.94583 96.1567 10.2672H88.9079C88.71 8.75324 89.3038 7.36768 89.6355 5.98748C89.8334 5.06199 90.2239 3.94392 88.2499 4.20605L81.6592 5.19573C81.397 5.32412 81.0707 5.45786 80.8032 5.6558C79.0271 5.78419 77.3795 6.51174 75.6676 6.90762C75.2075 6.05167 74.8116 5.19573 74.3516 4.33979C79.1609 2.29623 84.2323 1.30655 89.368 0.579C90.3577 0.316868 91.3474 0.252672 92.2675 0.188477V0.188477Z" fill="#FDE686"/>
<path d="M6.03231 73.8413C4.7163 74.1676 4.25089 72.5894 3.13281 72.5894C5.24057 65.2069 8.93181 58.6215 13.1473 52.2287C14.3991 50.2547 15.9131 48.4091 17.2986 46.5635C18.2188 46.5635 18.5505 47.5532 19.3422 47.8153C18.8768 48.607 18.6147 49.463 18.0208 50.2547C12.8852 57.5035 8.60549 65.2765 6.03231 73.8413V73.8413Z" fill="#EDC83D"/>
<path d="M39.7621 122.856C35.8783 123.252 32.0586 122.524 28.1695 122C25.8638 121.342 23.6223 120.684 21.3166 120.021V119.956C21.2524 119.694 21.0491 119.561 20.787 119.561C17.4969 117.72 14.0678 116.003 11.5 113.104C13.672 113.499 15.3892 114.949 17.4274 115.671C20.787 116.795 24.1519 117.651 27.7094 117.784H35.8034C36.6593 119.956 38.4408 121.208 39.7621 122.856V122.856ZM217.381 122.53C219.488 120.352 221.858 118.378 223.704 115.939C227.201 111.455 229.409 106.102 230.091 100.457C230.225 107.048 228.577 113.173 225.812 119.101C223.506 122.396 221.462 125.948 218.237 128.521C217.573 126.611 217.445 124.568 217.381 122.53V122.53Z" fill="#D5B041"/>
<path d="M123.491 58.9455C125.134 58.1591 127.113 58.4855 128.627 57.4316C135.416 56.6398 142.199 55.3934 149.116 55.4522H151.224C151.16 56.3135 150.635 57.1052 150.828 57.9612C148.528 58.1591 146.217 58.2287 143.847 58.3571C136.93 58.8171 130.205 60.0047 123.422 61.4545C123.491 60.5986 123.491 59.7426 123.491 58.9509V58.9455Z" fill="#F0CC4B"/>
<path d="M133.19 40.106C131.082 39.1217 129.696 37.4098 128.578 35.4304C128.846 30.4873 129.167 25.6138 127.787 20.7403C127.129 18.3704 125.743 16.2573 125.219 13.8232C130.156 19.5527 132.596 26.2718 133.254 33.7185C133.452 35.8263 133.254 37.9982 133.19 40.106Z" fill="#D5B041"/>
<path d="M19.2623 47.8217C18.4706 47.5542 18.1389 46.5645 17.2188 46.5645C21.6375 40.375 26.8374 34.9023 32.4385 29.7667C33.2302 29.0445 33.824 27.9211 35.0063 27.5947C35.338 28.3169 35.5359 29.1087 36.3972 29.5045C30.5875 35.4961 24.5263 41.2951 19.2623 47.8163V47.8217Z" fill="#F0CC4B"/>
<path d="M150.838 57.9618C150.64 57.0363 151.169 56.2499 151.234 55.4582C151.367 55.394 151.501 55.2602 151.629 55.2602C159.536 55.196 167.443 55.4582 175.216 57.17V59.7379C171.198 59.3473 167.309 58.2935 163.286 58.486C159.076 57.9618 154.994 58.026 150.838 57.9618V57.9618ZM36.4036 29.5017C35.5477 29.1701 35.414 28.3141 35.0234 27.5919C40.8303 22.1544 47.2926 17.4623 54.2607 13.624L56.0368 15.4001C55.4483 16.3256 54.3891 16.7215 53.5332 17.2457C50.4357 19.1555 47.2099 20.937 44.5083 23.4406C43.8503 23.9007 43.2565 24.2965 42.5985 24.7566C40.4212 26.2064 38.6398 28.1804 36.4036 29.5017V29.5017Z" fill="#F6D867"/>
<path d="M175.117 59.7426V57.1748C181.772 57.7633 188.031 59.7426 194.29 61.8504C195.146 62.1179 196.002 62.5137 196.858 62.8401V65.7396C195.018 65.6058 193.434 64.5519 191.722 64.0277C187.705 62.9738 183.88 61.3261 179.793 60.6039C178.15 60.8661 176.701 59.8764 175.123 59.748L175.117 59.7426Z" fill="#F9DD6F"/>
<path d="M56.0261 15.4028L54.25 13.6268C60.5091 9.60919 67.1587 6.37801 74.3432 4.20605C74.8033 5.062 75.1992 5.91794 75.6592 6.77388C73.8778 7.69402 71.77 7.82776 70.1224 8.94583C67.2871 9.60918 64.853 11.1927 62.221 12.3107C60.6375 12.9688 58.9256 13.5626 57.738 14.8786C57.1495 15.0765 56.5503 15.2049 56.0261 15.4028Z" fill="#FADE75"/>
<path d="M138.251 147.429C138.251 147.627 138.251 147.756 138.315 147.954C127.974 146.766 117.826 144.594 108.079 140.972C107.485 140.774 106.956 140.443 106.367 140.181C106.496 139.785 106.629 139.325 106.827 138.929C111.374 140.705 115.788 142.818 120.597 143.872C121.582 144.134 122.577 144.332 123.497 144.594C124.679 144.99 125.797 145.386 127.054 145.322C128.108 145.846 129.162 146.044 130.344 146.108C131.596 146.375 132.912 146.638 134.169 146.9C135.549 147.033 136.871 147.231 138.251 147.429V147.429Z" fill="#717070"/>
<path d="M106.812 138.867C106.678 139.263 106.544 139.723 106.352 140.119C101.077 138.273 96.1339 135.839 91.6562 132.41C92.2501 131.88 93.4377 132.212 93.5661 131.024C94.2936 131.484 94.957 131.88 95.6792 132.346C96.2676 133.004 96.931 133.464 97.7869 133.79C100.419 136.096 103.714 137.348 106.812 138.867V138.867Z" fill="#444342"/>
<path d="M21.3194 120.09C23.6251 120.748 25.8666 121.406 28.167 122.069C28.0386 123.316 29.2262 124.305 29.0229 125.557C25.995 124.434 22.9671 123.252 21.3194 120.09V120.09ZM20.8594 119.63C21.1215 119.63 21.3194 119.694 21.3836 120.026C21.1857 119.892 20.9878 119.758 20.8594 119.63Z" fill="#B4B4B3"/>
<path d="M11.0781 112.713L11.5382 113.173L11.0781 112.713Z" fill="#D5B041"/>
<path d="M217.378 122.529C217.448 124.568 217.576 126.611 218.234 128.521C213.559 133.464 207.894 136.824 201.57 139.193V131.49C201.708 131.341 201.863 131.208 202.03 131.094H202.426C202.758 131.094 203.084 131.025 203.282 130.698C203.416 130.564 203.55 130.431 203.742 130.302C208.156 128.457 212.179 125.953 216.132 123.251C216.523 122.92 216.854 122.529 217.378 122.529V122.529Z" fill="#DBBF60"/>
<path d="M177.7 146.046C174.512 146.972 171.203 147.415 167.883 147.362C171.703 145.982 171.703 145.982 171.703 141.894C171.703 139.327 171.703 139.327 169.135 139.658C167.552 138.535 166.038 140.118 164.454 139.658C163.796 138.535 164.652 137.679 164.92 136.689C165.904 136.625 166.958 136.887 167.883 136.229C172.522 136.125 177.128 135.416 181.584 134.121L184.553 133.726V136.229C184.943 137.149 182.247 135.898 183.697 137.481C181.257 137.679 180.273 138.867 180.664 141.37C180.862 142.75 180.728 144.206 180.728 145.586C179.743 146.174 178.69 146.046 177.7 146.046C179.412 143.874 178.224 141.301 178.422 138.931C178.492 138.535 177.962 138.471 177.566 138.471C174.469 138.401 173.747 139.129 173.811 142.29C173.811 143.542 173.415 145.254 174.078 145.982C174.667 146.506 176.448 146.046 177.7 146.046V146.046Z" fill="#FBE179"/>
<path d="M164.452 139.585C166.036 139.981 167.555 138.462 169.133 139.585C167.55 139.585 166.827 140.243 166.956 141.891C167.09 143.212 166.956 144.528 166.956 145.909C166.956 146.567 166.892 147.23 167.812 147.294C166.758 148.022 165.511 147.562 164.324 147.69C164.324 145.78 164.388 143.87 164.388 141.955C164.388 141.431 164.522 140.837 163.8 140.511C161.622 139.521 159.643 140.709 159.643 143.143V143.801C159.643 147.759 159.643 147.759 163.532 147.759C161.291 148.546 158.985 148.022 156.685 148.15V147.754C156.685 145.844 156.615 143.934 156.749 142.025C156.813 139.917 155.299 140.575 154.245 140.511C153.191 140.441 151.87 140.115 152.004 142.025C152.137 143.934 152.004 145.844 152.068 147.754V148.15H149.5L149.896 147.358C149.896 144.924 149.832 142.549 149.832 140.115C154.769 140.377 159.579 139.457 164.452 139.585V139.585Z" fill="#FDF48B"/>
<path d="M130.325 146.046C129.186 146.01 128.066 145.74 127.035 145.254C129.737 144.992 128.48 142.884 128.549 141.632C128.747 137.813 128.485 137.679 124.927 137.155C123.873 137.021 123.478 137.283 123.478 138.337V144.532C122.488 144.264 121.498 144.072 120.578 143.804C122.023 141.172 121.498 138.471 120.904 135.769C123.082 136.165 125.318 136.491 127.495 137.085C131.251 138.011 135.134 137.941 138.826 139.193V139.658C138.168 139.658 137.51 139.787 137.574 140.712C137.638 142.622 137.44 144.596 137.708 146.436C137.906 147.496 139.617 146.506 140.275 147.496L140.34 147.629C139.664 147.387 138.933 147.34 138.232 147.496C136.871 147.304 135.51 147.108 134.15 146.907C135.664 145.784 134.937 144.136 134.937 142.75C135.07 139.594 134.937 139.525 131.909 138.995C131.844 138.995 131.775 138.931 131.711 138.931C130.721 138.663 130.261 139.065 130.261 140.118C130.325 142.028 130.325 144.072 130.325 146.046V146.046ZM183.693 137.481C182.243 135.898 184.94 137.085 184.549 136.229C188.107 135.898 191.466 134.785 194.82 133.726C194.82 135.769 194.82 137.813 194.756 139.851C194.756 140.841 194.954 141.499 196.142 141.434C195.018 142.355 193.638 142.622 192.253 142.75C192.253 141.172 192.322 139.658 192.188 138.075C192.124 137.283 192.782 136.031 191.268 135.898C189.487 135.705 187.973 136.823 187.909 138.203C187.839 140.118 187.909 142.028 187.909 143.938C186.987 144.469 185.939 144.742 184.875 144.73V138.867C185.009 137.877 184.677 137.417 183.693 137.481V137.481Z" fill="#F6D867"/>
<path d="M196.165 141.368C194.978 141.432 194.78 140.774 194.78 139.785C194.849 137.741 194.849 135.703 194.849 133.659H196.101C196.497 133.659 197.021 133.724 197.353 133.595C199.129 132.804 199.589 133.595 199.525 135.307C199.461 136.955 199.525 138.533 199.525 140.181C198.529 140.864 197.37 141.274 196.165 141.368V141.368ZM163.618 147.756C159.734 147.756 159.734 147.756 159.734 143.802V143.144C159.734 140.774 161.714 139.523 163.886 140.512C164.608 140.839 164.474 141.433 164.474 141.957C164.474 143.872 164.474 145.782 164.41 147.692C164.142 147.756 163.886 147.756 163.618 147.756V147.756ZM183.717 137.479C184.701 137.415 185.033 137.939 185.033 138.865C184.963 140.844 185.033 142.749 185.033 144.728C183.672 145.276 182.22 145.567 180.753 145.584C180.753 144.198 180.881 142.749 180.684 141.368C180.288 138.865 181.272 137.677 183.717 137.479V137.479ZM187.932 143.872C187.932 141.962 187.863 140.047 187.932 138.137C187.932 136.693 189.51 135.633 191.292 135.837C192.806 136.029 192.148 137.217 192.212 138.009C192.276 139.587 192.212 141.101 192.276 142.684C190.96 143.604 189.441 143.808 187.932 143.872Z" fill="#DBBF60"/>
<path d="M138.836 139.587V139.127H139.692C142.656 139.261 145.619 139.785 148.653 139.587C148.92 139.587 149.241 139.855 149.573 139.983C148.85 139.983 148.128 140.047 147.465 139.983C145.223 139.587 144.763 140.641 144.833 142.684C144.961 147.296 144.897 147.296 149.969 147.296L149.573 148.088C146.481 148.35 143.447 147.692 140.35 147.558V147.43C141.8 147.494 142.591 147.034 142.393 145.386C142.26 144.134 142.329 142.882 142.393 141.631C142.458 140.577 142.126 140.047 141.008 140.047C140.221 139.983 139.494 139.721 138.836 139.587V139.587Z" fill="#FBE27D"/>
<path d="M199.518 140.118C199.518 138.471 199.453 136.887 199.518 135.239C199.582 133.527 199.122 132.805 197.346 133.527C196.95 133.661 196.49 133.597 196.094 133.597V133.201C197.934 132.607 199.785 132.078 201.625 131.489V139.193C201.037 139.851 200.309 140.049 199.518 140.118V140.118Z" fill="#F3D259"/>
<path d="M152.086 148.154V147.758H156.767V148.154H152.086Z" fill="#FBE27D"/>
<path d="M140.297 147.428V147.561H140.366L140.297 147.428Z" fill="#717070"/>
<path d="M123.471 58.9506V61.5184C116.024 63.8294 108.578 66.2635 101.661 70.0885C101.398 69.2326 101.072 68.3766 100.805 67.5207C101.794 66.2635 103.244 65.9372 104.63 65.3434C106.272 64.5516 108.711 64.22 109.434 62.904C110.813 60.3371 111.644 57.5116 111.873 54.6067C110.359 55.7301 110.027 57.2387 109.172 58.2979C108.776 58.758 108.583 59.5444 107.791 59.3518C107.064 59.1485 107.326 58.4263 107.326 57.8967C107.197 52.5631 107 47.2937 106.93 41.9548C106.866 38.5952 107.197 35.2357 106.802 31.9403C106.208 26.4088 106.668 20.8719 106.534 15.3404C106.534 15.0729 106.802 14.8803 106.93 14.6182C109.107 15.8004 110.621 17.7103 112.467 19.2937C115.826 24.1031 117.538 29.3725 117.212 35.2998C118.196 35.1073 118.266 34.4439 118.464 33.9838C119.582 30.3621 120.764 26.7404 121.888 23.1134C122.086 22.3912 122.219 21.5352 123.204 21.4015C125.381 27.0026 125.311 32.732 124.257 38.531C122.877 45.844 119.844 52.5631 116.024 58.8864C115.693 59.4802 115.233 60.074 115.233 60.9299C116.618 61.1279 117.8 60.3415 118.988 59.8065C120.438 60.074 121.823 58.9506 123.471 58.9506V58.9506Z" fill="#EDC83D"/>
<path d="M88.9112 10.1973H96.16C96.2978 10.3463 96.4522 10.4791 96.6201 10.5931C96.7538 15.0761 96.6842 19.4896 96.9517 23.9672C97.3423 31.3497 96.9517 38.7269 97.476 46.104C97.8077 51.0471 97.2085 55.9848 97.8719 60.992C98.1393 63.3673 98.3961 65.9351 97.476 68.3745C95.8283 67.2511 94.0522 66.791 92.1424 67.647C91.019 68.107 90.0293 68.7009 88.9112 69.1609C89.2429 64.4853 88.4512 59.874 88.5154 55.1984C88.5154 53.4865 87.7236 53.1548 86.215 53.6149C85.5517 53.8128 84.8937 54.4708 84.1019 53.9466C83.9735 53.5507 84.2998 53.417 84.4978 53.219C84.8937 52.8231 85.6212 52.561 85.2253 51.903C84.8937 51.3734 84.1661 51.5713 83.6418 51.7051C82.5184 51.8388 81.4003 52.1009 80.3465 52.3631C78.3029 52.7589 77.5112 52.1651 76.9869 49.9932C77.447 49.8594 77.8428 49.7257 78.3029 49.5973C78.1745 50.7849 78.7683 51.3092 79.8864 51.245C80.8065 51.245 81.6625 51.1113 82.588 50.8491C85.22 50.0574 87.7236 49.5973 90.163 51.7051C91.2865 52.6948 92.7309 51.6409 93.9827 51.3734C94.5765 51.245 94.4481 50.5174 93.8543 50.3195C90.9548 49.3352 88.387 47.2916 85.0916 47.42C85.0916 45.6439 85.22 43.8625 84.6957 42.1506C84.562 41.7548 84.6957 41.2305 84.1073 41.0967C83.6418 40.9684 83.2513 41.2947 82.9838 41.6264C81.93 42.8782 80.8761 44.13 79.8864 45.3818C77.1848 48.9393 73.1031 50.9775 70.0698 54.1445C70.0056 54.2087 69.8023 54.2087 69.6739 54.2087C69.6098 53.0853 71.0595 52.7589 70.99 51.6409C71.9154 51.6409 72.3809 50.9133 72.8356 50.3891C76.3289 46.6978 79.8222 43.0066 83.1818 39.1869C85.8138 36.0895 89.9009 34.4418 91.8749 30.7559C92.4687 30.36 93.1267 29.7662 92.2066 29.3704C90.9548 28.8461 89.6388 27.7227 88.0553 28.6481C87.5952 28.3165 87.5952 27.7922 87.5952 27.3268C87.2001 21.6707 87.068 15.9993 87.1993 10.331C87.7236 10.2668 88.3228 10.1973 88.9112 10.1973V10.1973Z" fill="#F3D259"/>
<path d="M97.4028 68.3761C98.323 65.9367 98.0608 63.4331 97.7987 60.9936C97.2049 56.0559 97.7291 51.0433 97.4028 46.1056C96.9427 38.7231 97.3386 31.3513 96.8732 23.9688C96.6111 19.4912 96.7448 15.0777 96.5469 10.5947C99.3822 10.7285 101.95 11.9803 104.652 12.772C105.042 13.6922 106.23 13.6922 106.824 14.4197C106.69 14.6818 106.428 14.8798 106.428 15.1419C106.561 20.6788 106.096 26.2103 106.695 31.7418C107.086 35.0372 106.759 38.3968 106.824 41.7563L107.219 57.6982C107.219 58.2332 107.021 58.9554 107.679 59.148C108.471 59.4155 108.669 58.6237 109.065 58.0941C109.921 57.0402 110.247 55.5958 111.767 54.4029C111.535 57.3108 110.704 60.1394 109.327 62.7109C108.6 64.0269 106.23 64.4227 104.512 65.1449C103.202 65.7387 101.683 66.0704 100.698 67.3222C99.3768 67.3222 98.6546 68.7666 97.2744 68.6382C97.4028 68.6382 97.4028 68.5045 97.4028 68.3708V68.3761Z" fill="#F0CC4B"/>
<path d="M123.041 21.3344C122.057 21.4628 121.988 22.2546 121.725 23.0463C120.602 26.668 119.484 30.295 118.302 33.9168C118.168 34.441 118.104 35.0402 117.05 35.2328C117.376 29.3054 115.664 23.9664 112.305 19.2267C114.215 18.7612 113.888 17.0494 114.477 15.8029C115.14 14.3478 114.744 12.3738 116.59 11.582C119.746 14.1499 121.993 17.381 123.041 21.3344V21.3344Z" fill="#F3D259"/>
<path d="M116.637 11.5203C114.791 12.3762 115.187 14.3556 114.529 15.7358C113.935 16.9876 114.262 18.7637 112.352 19.1595C110.506 17.5814 108.992 15.602 106.82 14.484C106.291 13.6922 105.109 13.7564 104.648 12.8363C105.895 11.5203 105.831 9.73884 106.425 8.1607C107.345 5.78546 107.478 5.72126 109.72 6.77514C112.224 8.02696 114.727 9.34297 116.637 11.5203V11.5203Z" fill="#F9DD6F"/>
<path d="M181.511 134.118C177.055 135.413 172.45 136.121 167.811 136.226C167.875 135.236 168.597 134.841 169.389 134.38C170.903 133.46 172.422 132.535 173.872 131.615C174.198 131.417 174.594 131.09 174.396 130.561C174.198 130.165 173.808 130.293 173.476 130.229C172.224 130.031 171.101 130.695 169.919 130.625C169.127 130.625 168.004 130.957 167.613 129.967C167.281 129.175 168.004 128.587 168.533 127.988C171.631 124.302 174.728 120.68 177.82 116.989C178.676 115.999 178.944 114.945 177.494 114.485C175.45 113.763 173.476 112.709 171.235 112.709C170.379 112.313 169.523 111.853 168.667 111.457C169.127 110.928 169.651 110.992 170.181 111.19C172.749 112.046 175.386 112.511 178.018 112.971C179.537 113.239 181.121 113.1 181.645 111.655C182.169 110.136 180.591 109.542 179.468 109.018C176.043 107.491 172.547 106.127 168.993 104.931C167.939 104.604 166.292 104.669 166.094 102.957C169.453 104.401 172.947 105.396 176.37 106.648C178.746 107.504 181.313 107.9 183.357 109.483C185.133 110.794 184.801 109.547 184.871 108.558C186.385 108.226 187.177 106.91 188.102 105.92C190.804 102.764 193.436 99.533 196.137 96.3018C200.353 91.2303 204.638 86.2231 208.853 81.2158C209.442 81.6759 209.977 82.136 210.565 82.5318C212.213 84.6396 213.727 86.8811 214.845 89.3205C215.043 90.6365 215.835 91.7546 215.701 93.1402C212.411 95.5796 210.298 99.0675 207.602 102.101C203.322 106.974 199.235 111.982 195.019 116.989C192.911 119.492 190.868 121.996 188.824 124.5C188.428 124.96 188.102 125.489 188.428 126.014C188.824 126.741 189.482 126.147 189.942 126.014C191.462 125.554 192.976 125.029 194.554 124.436C194.554 125.554 193.832 125.816 193.238 126.147C190.798 127.661 188.364 129.047 186.059 130.625C184.475 131.615 182.501 132.209 181.511 134.118Z" fill="#F0CC4B"/>
<path d="M181.516 134.122C182.505 132.213 184.479 131.619 186.063 130.565C188.433 128.981 190.872 127.532 193.242 126.087C193.836 125.756 194.558 125.494 194.558 124.375C192.98 124.9 191.466 125.494 189.947 125.954C189.487 126.087 188.893 126.676 188.433 125.954C188.106 125.424 188.433 124.9 188.829 124.44C190.936 121.936 192.98 119.432 195.023 116.929C199.175 111.921 203.257 106.914 207.606 102.041C210.238 99.0075 212.415 95.5837 215.71 93.0801C216.299 94.594 216.299 96.2364 216.566 97.7557C216.695 100.591 215.908 103.223 215.245 105.86C213.469 109.482 211.163 112.708 208.595 115.875C209.248 115.828 209.879 115.624 210.436 115.281C213.597 113.435 216.695 111.526 219.856 109.61C220.846 109.022 221.772 108.364 222.959 108.434C220.584 114.489 216.101 118.774 211.03 122.46C208.703 124.109 206.259 125.584 203.717 126.874C197.591 129.907 191.198 132.148 184.479 133.662C183.559 133.86 182.5 133.989 181.516 134.122V134.122Z" fill="#EDC83D"/>
<path d="M222.952 108.434C221.77 108.364 220.78 109.022 219.855 109.611C216.698 111.526 213.596 113.436 210.439 115.281C209.881 115.623 209.247 115.825 208.594 115.87C211.162 112.714 213.462 109.482 215.243 105.861C217.089 105.465 218.539 104.277 220.122 103.357C221.7 102.501 222.958 100.982 225.06 101.18C224.402 103.619 224.536 106.257 222.952 108.428V108.434Z" fill="#F0CC4B"/>
<path d="M216.579 97.7532C216.312 96.1751 216.312 94.5916 215.723 93.0776C215.852 91.6921 214.996 90.574 214.867 89.258C216.841 88.7926 218.355 87.3428 220.067 86.4227C221.388 85.6951 222.175 85.8931 222.635 87.3428C223.427 89.6485 224.812 91.8258 224.678 94.4578C223.427 94.3936 222.506 95.2496 221.453 95.7096C219.869 96.4372 218.617 98.0153 216.579 97.7532V97.7532Z" fill="#FADE75"/>
<path d="M216.556 97.7548C218.594 98.0223 219.846 96.4388 221.429 95.6471C222.483 95.1228 223.409 94.3311 224.655 94.3953C225.185 96.6368 225.185 98.9425 225.051 101.243C223.007 101.05 221.691 102.564 220.113 103.42C218.53 104.276 217.08 105.464 215.234 105.924C215.892 103.222 216.684 100.59 216.556 97.7548Z" fill="#F3D259"/>
<path d="M184.562 133.66C191.22 132.161 197.677 129.883 203.8 126.871C204.196 127.995 202.676 129.113 203.8 130.231C203.666 130.364 203.532 130.498 203.334 130.627C203.008 130.627 202.676 130.696 202.478 131.022H202.083C201.946 131.173 201.791 131.306 201.622 131.418C199.777 132.007 197.931 132.542 196.091 133.13C195.95 133.278 195.794 133.411 195.626 133.526H194.839C191.48 134.649 188.12 135.703 184.562 136.094V133.66V133.66Z" fill="#FDE686"/>
<path d="M97.3865 68.3759C97.3865 68.5043 97.3866 68.638 97.4507 68.7664C96.1989 70.4783 94.1554 71.2058 92.5772 72.4576C86.254 77.2723 81.113 82.9964 78.5451 90.7052C76.9617 95.4504 77.6892 100.26 77.9513 105.005L78.7431 110.472C74.8539 112.714 70.9647 114.886 66.7492 116.533C66.3587 116.004 65.4974 115.875 65.4974 114.95C65.5669 112.842 64.6414 110.868 64.1814 108.889C64.1814 108.033 64.1172 107.113 64.1172 106.257C64.5131 104.015 64.9731 101.709 65.369 99.4679C65.6953 98.2161 66.027 96.9643 66.3533 95.6483C67.6747 93.4763 68.4664 91.0369 69.7183 88.865C71.5585 85.6338 73.998 82.868 76.1057 79.9043C78.3472 77.727 80.6529 75.5551 82.889 73.3778C84.8684 71.9976 86.912 70.5478 88.886 69.1623C89.9399 68.638 90.9937 68.0442 92.1172 67.6483C93.9574 66.7924 95.7389 67.2524 97.3865 68.3759V68.3759Z" fill="#B5A151"/>
<path d="M64.1432 108.889C64.6033 110.932 65.5234 112.847 65.4592 114.95C65.395 115.806 66.3152 116.004 66.7111 116.533C64.6033 117.389 62.4313 118.309 60.3236 119.165C55.5089 120.487 50.7691 121.936 45.7619 122.589C43.7825 122.461 41.8085 123.252 39.7703 122.921C38.4489 121.278 36.6675 120.027 35.9453 117.914C38.7806 117.325 41.6106 116.795 44.5047 116.202C44.9701 116.202 45.4998 116.271 45.8261 115.806H46.222C52.6148 114.554 58.3442 111.724 64.1432 108.889Z" fill="#DBBF60"/>
<path d="M78.6121 110.464L77.8203 105.002C79.0079 105.59 79.0079 106.848 79.4038 107.837C81.1799 112.053 83.8173 115.61 87.1073 118.702C87.241 118.836 87.439 118.97 87.5727 119.162C89.4183 121.206 91.9861 122.394 93.5643 124.699C92.6441 124.368 92.7083 124.967 92.7083 125.555V130.167C89.873 128.391 87.7706 125.817 85.6629 123.25C82.8978 119.913 80.7755 116.093 79.4038 111.983C79.2059 111.395 79.2059 110.796 78.6121 110.469V110.464Z" fill="#D5B041"/>
<path d="M92.6963 130.166V125.554C92.6963 124.966 92.6321 124.367 93.5522 124.698C94.146 124.966 94.6756 125.287 95.2641 125.554L95.6653 125.95V132.338C94.9378 131.878 94.2798 131.482 93.5522 131.022L92.6963 130.166V130.166Z" fill="#DBBF60"/>
<path d="M29.5291 106.717C27.4214 105.989 25.1852 105.593 23.1417 104.545C22.7458 87.613 22.6121 70.6814 21.8203 53.7498C22.7458 51.84 24.0672 50.1228 25.3832 48.4751C27.8119 45.383 30.1229 42.1518 33.215 39.584C33.873 39.9799 33.7446 40.6379 33.7446 41.2959C33.8088 49.0047 34.4668 56.6493 34.1352 64.3528C34.071 65.5404 34.2689 66.728 34.6006 67.9103C33.6751 70.018 31.6315 71.1415 30.3209 72.8534C29.3258 74.1052 29.1279 75.0253 31.1768 75.0948C32.2253 75.9508 32.8887 76.6088 33.413 74.4368C33.6867 73.3608 34.2032 72.3616 34.9228 71.5159C35.6423 70.6703 36.5459 70.0005 37.5643 69.558C37.6285 70.5477 36.5746 70.9435 36.3125 71.7353C35.4565 72.6554 33.873 73.5114 34.4027 74.8327C34.9269 76.0792 36.5104 76.4751 38.0244 76.4109C37.7569 77.4647 37.3663 78.1869 35.9808 77.7964C33.1455 77.0047 32.6212 77.5985 33.215 80.5622C33.2792 80.958 33.3488 81.4181 33.3488 81.814C33.0813 90.245 33.6751 98.676 33.8088 107.112L29.5291 106.717V106.717Z" fill="#F6D867"/>
<path d="M33.2155 39.6469C30.1181 42.1506 27.8124 45.3817 25.3783 48.5434C24.0569 50.1911 22.7409 51.8388 21.8154 53.8128C20.8953 54.337 20.6332 55.3909 20.1035 56.2522C14.9679 64.8812 11.0787 73.906 11.0787 84.2468C11.0787 92.5495 14.112 99.1402 21.029 103.816C20.7616 105.993 19.9056 108.031 19.2476 110.139C18.9213 111.262 18.3917 111.589 17.2682 110.995C9.8911 107.304 5.67559 101.312 4.29538 93.2075C3.17196 86.6221 4.29538 80.2988 6.00726 73.9702C8.57509 65.4108 12.8548 57.6324 17.9958 50.389C18.5254 49.5973 18.8517 48.7413 19.3172 47.9496C24.5865 41.423 30.5781 35.6294 36.4413 29.6324C38.6882 28.3164 40.4643 26.3424 42.572 24.8926C43.23 24.4272 43.8238 24.0367 44.4818 23.5713C45.5357 23.7692 45.3378 24.363 45.0703 25.0906C44.6102 26.535 43.888 27.9259 44.086 29.504C43.1658 30.2958 42.2403 31.018 41.3844 31.8044C38.6186 34.3775 35.3928 36.4211 33.2155 39.6469V39.6469Z" fill="#E6B40F"/>
<path d="M21.0284 103.75C14.1114 99.0692 11.0781 92.4838 11.0781 84.1811C11.0781 73.8403 14.9673 64.8155 20.103 56.1812C20.6326 55.3252 20.8305 54.3355 21.8148 53.7471C22.6066 70.6787 22.7403 87.6102 23.1362 104.542C22.4296 104.289 21.7269 104.025 21.0284 103.75V103.75Z" fill="#F3D259"/>
<path d="M29.545 106.715L33.8247 107.111C35.0819 107.111 36.3979 107.111 37.6497 107.175C37.1896 108.823 36.7296 110.406 36.2641 112.054C35.8041 113.894 36.2 114.226 38.1098 113.964C40.8113 113.498 43.5129 113.172 46.2145 112.776C47.0062 113.766 47.6 114.755 46.2145 115.804H45.8186C45.3585 115.804 44.8289 115.74 44.5026 116.2C41.6673 116.794 38.832 117.323 35.9378 117.912H27.8278C27.3677 113.964 29.0796 110.47 29.5397 106.715H29.545Z" fill="#EDC83D"/>
<path d="M202.062 68.6992C204.041 69.1593 205.555 70.4806 207.337 71.4008C208.455 71.9892 207.797 72.7168 207.139 73.1822C205.951 74.0381 204.502 74.6266 203.779 76.0175C202.725 75.8784 202.067 76.606 201.474 77.264C196.135 83.523 190.732 89.7821 185.398 96.1054C182.761 95.977 180.391 94.4577 177.753 94.3935C177.095 93.7355 176.502 93.8639 176.502 94.7894C176.502 96.2338 175.646 96.5655 174.458 96.5013C174.132 96.5013 173.736 96.5013 173.736 97.2288C175.779 97.8173 177.887 98.4806 179.925 99.1386C181.84 99.7271 181.969 100.321 180.653 101.904C179.797 102.894 178.941 103.75 178.609 105.066C175.186 104.21 171.762 103.29 168.338 102.434C168.135 101.043 169.515 100.588 169.98 99.5987C170.376 98.6786 172.024 97.8868 171.104 96.9613C170.312 96.1749 169.06 97.293 168.135 97.8173C165.963 99.0049 166.027 99.0691 164.711 99.0691C167.343 97.4909 169.189 95.4474 172.152 95.1211C173.538 94.9873 174.923 93.7997 174.528 92.3499C174.132 91.0339 172.618 91.9541 171.756 92.2858C168.793 93.4734 165.829 94.1956 162.801 92.6816C160.956 92.4837 160.1 90.7023 158.521 90.1138C157.312 86.9569 155.596 84.0187 153.439 81.4153C153.049 80.9552 152.653 80.6235 151.995 81.0194C151.406 81.3511 151.337 81.747 151.465 82.405C151.797 83.5872 152.653 84.5127 152.589 85.8287C152.524 86.4867 152.856 87.4122 151.733 87.5406V86.6847C151.599 85.037 150.021 84.2506 149.625 82.865C150.347 82.8008 150.481 82.2766 150.481 81.6774C150.545 79.7676 151.465 78.7779 153.509 78.9759L153.969 79.4413C156.606 82.4692 158.516 85.9625 160.758 89.2579C160.362 89.52 160.426 89.8463 160.693 90.1138C162.603 92.0878 166.883 92.9491 169.451 91.5582C173.142 89.6484 177.031 88.4019 180.985 87.2143C182.498 86.7542 184.077 85.9625 185.66 87.4764C185.928 86.4226 186.184 85.6308 186.318 84.8391C186.516 83.721 186.382 82.9934 184.874 83.4589C183.092 84.0473 181.311 84.379 179.535 84.9033C179.612 84.1923 179.911 83.5239 180.391 82.9934C182.959 79.9655 185.66 77.0018 188.164 73.8402C189.287 72.3905 191.127 71.2724 191.063 69.0951C191.588 69.3626 192.117 69.5552 192.577 69.8226C196.001 72.0588 199.168 71.6629 201.998 68.6992C201.864 68.7634 201.998 68.7634 202.062 68.6992V68.6992Z" fill="#F6D867"/>
<path d="M178.569 105.066C178.836 103.75 179.756 102.894 180.612 101.904C181.993 100.321 181.795 99.7322 179.885 99.1384C177.831 98.4718 175.768 97.8352 173.695 97.2286C173.695 96.5653 174.022 96.5011 174.418 96.5011C175.669 96.5653 176.461 96.2336 176.461 94.7892C176.461 93.869 177.05 93.7353 177.713 94.3933C178.301 96.2389 179.756 96.9611 181.404 97.4907C182.522 97.8171 183.774 97.9508 183.774 99.6627C183.774 100.519 184.828 100.39 185.486 100.652C185.882 100.786 186.342 100.717 186.54 100.257C187.128 99.2668 186.406 96.7632 185.352 96.041C190.691 89.7819 196.025 83.4587 201.428 77.1996C202.022 76.472 202.68 75.7498 203.734 75.9478C205.05 77.0016 206.301 78.0555 207.559 79.1736C208.147 79.7032 208.81 80.1633 208.875 81.0192L196.158 96.1052C193.457 99.3364 190.889 102.562 188.123 105.724C187.198 106.778 186.476 108.099 184.892 108.361C184.956 107.372 184.625 106.911 183.576 106.58C181.928 106.253 180.152 105.991 178.569 105.066V105.066ZM202.086 68.699C202.022 68.699 201.957 68.7632 201.888 68.7632C199.053 71.7323 195.896 72.1281 192.473 69.8866C192 69.5783 191.489 69.3336 190.953 69.1591C189.637 69.0949 188.653 68.4369 187.529 67.8431C187.925 66.9871 188.712 66.7197 189.439 66.1954C190.295 65.6069 191.611 65.4036 191.809 64.0234C193.521 64.5477 195.105 65.6016 196.945 65.7353C198.4 67.1797 200.636 67.2493 202.086 68.699V68.699Z" fill="#F3D259"/>
<path d="M87.1908 10.2657C87.0901 15.934 87.2222 21.604 87.5867 27.2615C87.5867 27.7911 87.5867 28.2512 88.0467 28.5775C85.2019 32.5119 82.0748 36.2344 78.6902 39.7154C77.8343 39.6459 77.7701 38.9879 77.7701 38.3299V35.104C77.7701 34.3765 78.0376 33.3226 77.1121 33.0605C76.2561 32.8625 75.7907 33.7827 75.3306 34.3765C74.8064 35.104 74.3463 35.96 72.8966 36.2221C74.0788 34.5102 75.0043 33.2584 75.7907 31.9424C76.1224 31.4074 76.7162 30.5515 76.1224 30.0272C75.5339 29.4388 74.8706 30.0968 74.2768 30.5569C70.7888 33.1889 68.0872 36.618 64.8614 39.5175C64.2623 40.1059 63.8022 40.8977 62.8125 40.8977C62.8125 39.9776 63.5401 39.5817 64.0643 39.0521C66.4396 36.6822 68.879 34.3123 71.1793 31.8729C71.5752 31.477 72.6291 31.1507 71.7731 30.2252C72.0406 29.7009 72.3669 29.1713 72.6291 28.5775C73.5546 29.3692 74.0146 28.5133 74.5389 28.0532C76.3203 26.6677 77.9038 24.8916 80.4021 26.9298C81.258 27.6574 81.5897 26.8014 81.5897 25.9455C82.2477 25.9455 82.9753 25.8759 83.109 25.1537C83.2374 24.362 82.3173 24.5653 81.8518 24.362C81.0654 23.9661 80.2095 23.704 79.4178 23.3723C79.2198 19.3601 79.8778 15.3371 79.0219 11.3891C79.5462 9.40975 80.798 7.56413 80.7338 5.38683C81.0013 5.25844 81.3276 5.12469 81.5897 4.92676C81.7235 6.31231 81.4613 7.56413 80.9317 8.81594C80.4716 10.0036 80.9317 10.3941 82.1835 10.5278C83.8954 10.8595 85.4789 10.132 87.1908 10.2603V10.2657Z" fill="#F6D867"/>
<path d="M80.7075 5.52246C80.7717 7.69441 79.5199 9.47584 78.9956 11.5141C76.657 12.0497 74.3667 12.778 72.1481 13.6913C71.0247 14.0872 69.8371 14.5473 68.719 14.9432C68.5852 12.8354 70.1634 11.1235 70.035 9.01577C71.7469 7.89235 73.7904 7.76396 75.5665 6.83847C77.3479 6.44795 78.9314 5.6562 80.7075 5.52246V5.52246Z" fill="#F3D259"/>
<path d="M87.1758 10.2652C85.464 10.1314 83.8805 10.8537 82.1686 10.7253C80.9168 10.6611 80.4567 10.1956 80.9168 9.01338C81.3768 7.76156 81.7085 6.50975 81.5748 5.12419C83.8163 4.85671 85.9882 4.46619 88.1655 4.13451C90.1449 3.87238 89.8132 4.99045 89.5457 5.91594C89.2194 7.36034 88.6256 8.6817 88.8235 10.1956C88.2939 10.1956 87.7001 10.2652 87.1758 10.2652V10.2652Z" fill="#F9DD6F"/>
<path d="M101.687 70.021C108.539 66.196 115.986 63.8261 123.497 61.4562C130.216 60.0653 136.999 58.8188 143.917 58.3534C146.222 58.225 148.528 58.1608 150.903 57.9629C155.054 58.0271 159.136 57.9629 163.288 58.423C163.223 59.5464 162.362 59.8727 161.576 60.4023C160.586 60.9908 159.27 61.2583 159.008 62.6385C156.301 62.6385 153.605 62.7027 150.903 62.7027C146.323 62.5914 141.745 63.0133 137.262 63.9598C133.902 64.1524 130.74 65.1421 127.45 65.7359L126.263 66.1318C115.521 69.1597 105.378 73.3805 97.5352 81.8062C91.3457 88.4665 88.9758 96.1058 92.0679 105.066C89.9601 105.794 88.3125 107.308 86.4026 108.362C85.3488 108.95 84.8887 108.688 84.2949 107.634C82.0534 103.29 81.5933 98.6094 82.3155 93.998C83.5031 86.4871 88.0503 80.9556 93.6514 76.0767C96.0855 73.7764 99.1829 72.2571 101.687 70.0156V70.021Z" fill="#E6B40F"/>
<path d="M158.858 62.7083C159.184 61.3174 160.506 61.0606 161.426 60.4614C162.218 59.9372 163.074 59.6055 163.138 58.4874C167.155 58.2895 171.109 59.4129 175.068 59.7392C176.646 59.873 178.095 60.8627 179.743 60.6647C179.674 61.6491 178.887 61.9807 178.224 62.5103C177.437 63.0988 176.244 63.4305 175.923 64.6181C171.505 64.3506 167.155 63.0988 162.678 63.1684C161.49 62.5103 160.174 62.9009 158.858 62.7083V62.7083ZM44.0229 29.3694C43.8945 27.7912 44.6167 26.4057 45.0126 24.9559C45.2105 24.2337 45.478 23.5704 44.4241 23.442C47.1203 20.9383 50.3515 19.1623 53.449 17.2471C54.3049 16.7228 55.3588 16.327 55.9526 15.4015C56.4768 15.2731 57.0707 15.0751 57.6003 14.9414C58.3225 15.669 58.0603 16.4554 57.7982 17.2471C57.4023 18.301 57.0707 19.3549 57.2044 20.4783C55.3588 21.6605 53.3794 22.6502 51.6675 23.9662C49.8914 25.3518 47.7141 26.1435 46.3981 28.1176C45.3443 27.9892 44.8842 29.1072 44.0282 29.3694H44.0229Z" fill="#E9C02A"/>
<path d="M176.007 64.618C176.333 63.4945 177.451 63.1682 178.307 62.5102C178.971 61.9806 179.827 61.6543 179.827 60.6646C183.908 61.3868 187.798 63.0345 191.751 64.0884C191.617 65.4739 190.301 65.6718 189.381 66.2603C188.654 66.7257 187.862 67.052 187.466 67.908C184.898 67.1858 182.33 66.5278 179.762 65.8002C178.575 65.3402 177.061 65.6718 176.007 64.618V64.618ZM57.288 20.4086C57.1542 19.2852 57.4859 18.2366 57.8764 17.1828C58.1439 16.391 58.4756 15.5993 57.6838 14.8771C58.9357 13.5611 60.6475 12.9673 62.1615 12.3093C64.7989 11.1858 67.2329 9.60769 70.0682 8.94434C70.202 11.0574 68.6827 12.7693 68.7522 14.8771C66.5749 15.7972 64.2692 16.4552 62.3594 17.8408C60.5138 18.3704 58.9999 19.6864 57.288 20.4086V20.4086Z" fill="#EDC83D"/>
<path d="M120.845 135.768C121.434 138.47 121.969 141.171 120.514 143.803C115.704 142.75 111.291 140.647 106.749 138.866C103.646 137.346 100.42 136.095 97.7188 133.789C97.7188 131.489 97.7188 129.113 97.7883 126.808C100.42 127.466 102.662 129.049 105.032 130.231C105.23 130.563 105.561 130.627 105.888 130.627C106.219 131.157 106.679 131.023 107.139 131.023C107.337 131.355 107.605 131.419 107.995 131.419C112.216 133.398 116.432 134.912 120.845 135.768V135.768ZM123.483 144.531V138.336C123.483 137.282 123.878 137.02 124.927 137.154C128.484 137.678 128.682 137.876 128.554 141.631C128.49 142.883 129.806 144.991 127.04 145.253C125.788 145.323 124.601 144.927 123.483 144.531V144.531ZM130.33 146.045V140.053C130.33 138.994 130.796 138.598 131.78 138.866C131.849 138.866 131.914 138.93 131.978 138.93C135.075 139.46 135.139 139.46 135.011 142.685C134.942 144.071 135.669 145.713 134.219 146.837C132.834 146.569 131.582 146.307 130.33 146.045Z" fill="#DBBF60"/>
<path d="M97.836 126.807C97.836 129.113 97.836 131.483 97.7718 133.788C96.9701 133.471 96.2498 132.977 95.6641 132.344V125.951C96.52 125.951 97.2422 126.149 97.836 126.807Z" fill="#D5B041"/>
<path d="M202.473 131.09C202.671 130.759 203.003 130.694 203.329 130.694C203.131 131.021 202.805 131.09 202.473 131.09ZM201.617 131.486C201.751 131.352 201.885 131.219 202.077 131.09C201.879 131.219 201.751 131.352 201.617 131.481V131.486Z" fill="#F3D259"/>
<path d="M168.726 111.462C169.582 111.857 170.438 112.318 171.294 112.713C171.427 113.896 170.636 114.693 169.978 115.479L158.117 129.511C157.722 129.971 156.994 130.367 157.459 131.095C157.791 131.683 158.449 131.421 159.043 131.421C161.611 131.555 164.114 131.287 166.618 131.025C167.078 130.961 167.672 130.897 167.806 131.555C167.934 132.079 167.41 132.277 167.078 132.475C166.158 133.063 165.168 133.663 164.243 134.321C163.585 134.781 162.333 135.112 162.531 135.968C162.798 137.151 164.114 136.364 164.906 136.557C164.639 137.546 163.783 138.402 164.441 139.526C159.573 139.328 154.758 140.248 149.884 139.986H149.553C149.226 139.852 148.964 139.59 148.633 139.59C145.599 139.788 142.705 139.264 139.672 139.13C139.87 138.274 140.26 137.482 140.132 136.626C142.24 136.69 144.347 136.428 146.461 136.958C147.975 137.348 154.432 134.123 155.154 132.807C155.614 131.881 154.956 131.881 154.362 131.881C151.206 132.015 148.039 131.095 144.813 131.421C143.363 131.689 141.978 130.961 140.533 130.961C140.486 130.543 140.532 130.119 140.668 129.72C140.804 129.322 141.027 128.958 141.32 128.655C145.669 123.584 149.949 118.443 154.1 113.238C155.352 111.66 157.197 110.536 157.593 108.295C158.577 108.166 159.503 108.626 160.428 108.888C163.194 109.878 165.832 111.066 168.726 111.456V111.462Z" fill="#F6D867"/>
<path d="M164.869 136.624C164.083 136.426 162.762 137.154 162.499 136.036C162.302 135.174 163.553 134.843 164.211 134.383C165.137 133.725 166.121 133.2 167.047 132.537C167.373 132.339 167.903 132.146 167.769 131.617C167.64 130.959 167.047 131.028 166.587 131.093C164.083 131.355 161.51 131.617 159.006 131.483C158.482 131.419 157.754 131.751 157.428 131.157C157.032 130.429 157.754 130.033 158.086 129.573C162.039 124.898 166.057 120.222 169.946 115.541C170.604 114.749 171.391 113.963 171.262 112.775C173.504 112.775 175.478 113.899 177.521 114.551C178.966 115.017 178.645 116.071 177.848 117.055C174.755 120.682 171.658 124.368 168.561 128.059C168.031 128.648 167.309 129.311 167.64 130.039C168.031 131.023 169.085 130.627 169.941 130.697C171.128 130.697 172.252 130.103 173.504 130.301C173.83 130.365 174.29 130.231 174.424 130.627C174.622 131.157 174.226 131.419 173.9 131.681C172.38 132.606 170.93 133.596 169.417 134.452C168.694 134.912 167.903 135.308 167.838 136.292C166.982 136.822 165.923 136.624 164.869 136.624V136.624Z" fill="#F3D259"/>
<path d="M177.718 146.045C176.466 146.045 174.684 146.574 174.16 145.911C173.502 145.189 173.893 143.477 173.893 142.22C173.893 139.063 174.556 138.405 177.653 138.405C178.044 138.405 178.509 138.469 178.509 138.865C178.242 141.299 179.43 143.803 177.718 146.045V146.045ZM167.901 147.296C166.981 147.232 167.045 146.569 167.045 145.911C167.045 144.595 167.109 143.209 167.045 141.899C166.911 140.246 167.634 139.588 169.217 139.588C171.785 139.261 171.785 139.261 171.785 141.829C171.721 145.911 171.721 145.911 167.901 147.296ZM149.52 140.048H149.851C149.851 142.487 149.916 144.862 149.916 147.296C144.78 147.361 144.908 147.361 144.78 142.685C144.71 140.641 145.17 139.588 147.412 139.983C148.134 140.181 148.856 140.048 149.52 140.048V140.048ZM156.768 147.756H152.088C152.088 145.847 152.157 143.937 152.023 142.027C151.89 140.117 153.211 140.443 154.265 140.508C155.319 140.577 156.833 139.919 156.768 142.027C156.699 143.937 156.768 145.847 156.768 147.756Z" fill="#DBBF60"/>
<path d="M140.109 136.623C140.243 137.543 139.841 138.335 139.649 139.127H138.793C135.102 137.939 131.212 138.003 127.457 137.019C125.285 136.489 123.044 136.163 120.872 135.703C116.45 134.806 112.156 133.368 108.086 131.423C109.739 131.616 110.199 130.696 110.199 129.246C111.585 129.176 112.638 130.428 114.019 130.102C116.126 131.354 118.566 131.878 120.872 132.606C121.198 132.67 121.594 132.67 121.925 132.803C127.724 134.649 133.588 135.767 139.649 136.093C139.847 136.361 139.975 136.489 140.109 136.623V136.623Z" fill="#F0CC4B"/>
<path d="M140.282 147.429C139.693 146.44 137.912 147.429 137.778 146.376C137.447 144.53 137.645 142.551 137.645 140.641C137.645 139.721 138.238 139.656 138.896 139.587C139.554 139.721 140.282 139.983 140.94 139.983C142.063 139.983 142.39 140.512 142.325 141.566C142.226 142.816 142.226 144.072 142.325 145.322C142.454 146.964 141.732 147.494 140.282 147.429V147.429Z" fill="#DBBF60"/>
<path d="M195.646 133.661C195.783 133.511 195.937 133.378 196.106 133.266V133.661H195.641H195.646Z" fill="#F6D867"/>
<path d="M101.684 70.0202C99.1162 72.2563 96.0829 73.7703 93.5151 76.0118C87.9194 80.8853 83.3722 86.4222 82.1846 93.933C81.4624 98.5444 81.9171 103.29 84.164 107.569C84.6882 108.623 85.1483 108.885 86.2717 108.291C88.1815 107.238 89.8292 105.788 91.937 105.001C92.3329 105.59 92.7234 106.125 93.1888 106.713C93.911 108.361 94.7669 109.939 95.8208 111.389C95.2965 112.379 94.3764 112.908 93.4509 113.432C91.1452 114.882 88.3795 115.738 87.256 118.638C83.9633 115.587 81.3401 111.885 79.5526 107.767C79.1567 106.778 79.1567 105.526 77.9691 104.932C77.7016 100.128 76.9794 95.3828 78.5575 90.6377C81.1307 82.8647 86.2717 77.1994 92.595 72.3901C94.2427 71.1383 96.2167 70.4107 97.4685 68.6988C98.8541 68.8968 99.5763 67.3828 100.892 67.3828C101.09 68.3029 101.422 69.1589 101.684 70.0148V70.0202Z" fill="#E9C02A"/>
<path d="M82.8872 73.3796C80.651 75.5516 78.34 77.7235 76.1038 79.9008C75.3121 74.2998 75.7721 68.6987 75.6438 63.103C75.6438 61.9154 75.5796 60.6636 75.4458 59.4759C75.2479 57.5661 74.3919 56.5764 72.3484 57.4966C71.9525 57.6999 71.3587 57.8282 71.0966 56.9723L73.6644 55.5921C74.5203 55.1267 75.1141 54.4687 74.5899 53.5485C73.8623 52.3609 73.1401 53.3506 72.4821 53.6769C70.8986 54.4687 69.5184 55.8542 67.5391 55.3888C67.8065 54.8004 68.9246 55.0625 68.8551 54.1423H69.711C69.8448 54.1423 70.0427 54.1424 70.1069 54.0728C73.1401 50.847 77.2219 48.8676 79.9235 45.3101C80.9131 43.9941 81.967 42.8065 83.0263 41.5547C83.283 41.2283 83.6789 40.8967 84.139 41.0304C84.6686 41.1641 84.6044 41.6189 84.7328 42.0843C85.2624 43.7962 85.1287 45.5776 85.1287 47.3537C82.8925 48.0812 80.5815 48.8034 78.3453 49.531C77.8853 49.6594 77.4894 49.7931 77.024 49.9215C75.8417 51.3712 76.1038 51.965 78.2758 52.9547C79.7255 53.5432 79.7255 54.1424 78.4737 54.9341C78.1474 55.1267 77.5536 54.9983 77.6873 55.6563C78.2758 56.1164 78.7412 55.5921 79.2655 55.5226C81.967 54.9341 82.4966 55.3246 82.5608 58.0904C82.5608 60.1339 82.4966 62.1775 82.5608 64.2853C82.5608 67.3185 82.0312 70.4106 82.8872 73.3796V73.3796Z" fill="#F9DD6F"/>
<path d="M82.8722 73.381C82.0163 70.4119 82.6101 67.3199 82.4817 64.2866C82.4122 62.2431 82.4817 60.2048 82.4817 58.0917C82.4817 55.326 81.8879 54.8659 79.1863 55.5239C78.6567 55.6577 78.1967 56.1177 77.6028 55.6577C77.4745 54.9997 78.1325 55.128 78.3946 54.9301C79.6464 54.1437 79.6464 53.5499 78.1967 52.9507C75.9552 52.036 75.7572 51.3726 76.9448 49.9229C77.4049 52.1697 78.2608 52.7582 80.3044 52.2981C81.4278 52.1002 82.4817 51.838 83.5998 51.6401C84.124 51.5705 84.8516 51.3726 85.1833 51.838C85.5738 52.496 84.8516 52.7582 84.4557 53.154C84.2578 53.352 83.9315 53.4215 84.0599 53.8762C84.8516 54.4058 85.5096 53.7478 86.1676 53.5499C87.6869 53.0203 88.4733 53.352 88.4733 55.128C88.4733 59.809 89.2009 64.4204 88.8692 69.0959C86.8256 70.5457 84.8516 71.9954 82.8776 73.3756L82.8722 73.381Z" fill="#F6D867"/>
<path d="M78.6972 39.7158C82.1209 36.2225 85.2237 32.5313 88.059 28.5779C89.6372 27.6577 90.9532 28.7758 92.205 29.3054C93.1251 29.7013 92.4029 30.3593 91.8733 30.6856C89.7013 30.4235 88.0537 31.1511 86.9356 33.1893C86.6681 33.7189 86.0796 34.1148 85.6142 34.5748C81.923 38.6619 78.1729 42.6795 74.6796 46.895C73.4278 48.4732 71.4538 49.5324 70.8599 51.5706C70.5925 51.6402 70.2019 51.6402 70.0682 51.8381C68.5543 53.6784 66.3128 54.01 64.205 54.4701C63.4828 54.6038 62.6215 54.9997 62.3594 53.8121C63.8091 53.352 65.1947 52.892 66.6391 52.4961C67.6288 52.5603 68.351 52.1644 69.0143 51.3727C70.2019 49.9283 71.5821 48.5374 72.7056 47.0288C74.6154 44.5251 77.0548 42.4816 78.6972 39.7158V39.7158ZM78.2371 49.5324C80.4786 48.8049 82.7843 48.0826 85.0258 47.3551C88.3158 47.2214 90.889 49.2649 93.7885 50.2546C94.3769 50.4525 94.5749 51.1747 93.9169 51.3085C92.665 51.576 91.2848 52.6245 90.0972 51.6402C87.722 49.5324 85.1542 50.0567 82.5221 50.7842C81.6449 51.0427 80.7351 51.1742 79.8206 51.1747C78.6972 51.2443 78.1087 50.7147 78.2371 49.5324V49.5324Z" fill="#E9C02A"/>
<path d="M70.9297 51.6385C71.5235 49.5307 73.4333 48.4715 74.7493 46.9576C78.2426 42.6779 81.9981 38.7191 85.6893 34.6374C86.0852 34.1773 86.6737 33.7814 87.0053 33.2572C88.0592 31.2778 89.7711 30.486 91.9484 30.7535C89.9048 34.4448 85.8873 36.0871 83.2499 39.1846C79.9545 43.0737 76.4024 46.6954 72.9091 50.3867C72.3152 50.9751 71.8552 51.6385 70.9297 51.6385V51.6385Z" fill="#EDC83D"/>
<path d="M62.3985 53.8099C62.666 54.9975 63.5861 54.6658 64.2441 54.4679C66.3572 54.0078 68.5934 53.7457 70.1073 51.8358C70.2411 51.6379 70.6369 51.6379 70.8991 51.5684C70.9633 52.6918 69.5831 53.0181 69.5831 54.1362H68.7271C67.8712 54.4037 66.8815 54.3341 66.1593 54.9921H65.3034C64.9717 54.9921 64.64 55.0617 64.4474 55.3933H63.1903C62.2059 54.9279 60.2961 56.6398 60.2266 54.1415C61.0183 54.2057 61.6121 53.6119 62.3985 53.8099V53.8099Z" fill="#EDC83D"/>
<path d="M168.756 111.461C165.856 111.065 163.224 109.877 160.517 109.085C159.597 108.823 158.677 108.363 157.688 108.497V108.101C157.955 107.967 158.276 107.834 158.543 107.636H159.399C162.695 108.957 166.054 109.882 169.617 109.743C170.602 109.743 171.784 109.877 172.115 108.69C172.447 107.374 171.26 106.913 170.27 106.453C169.088 105.86 167.766 105.464 166.648 104.806C165.792 104.346 164.342 104.148 164.936 102.5C165.396 102.628 165.792 102.762 166.252 102.896C166.45 104.608 168.162 104.544 169.152 104.875C172.709 106.052 176.203 107.443 179.626 108.957C180.75 109.481 182.392 110.075 181.798 111.589C181.274 113.039 179.691 113.237 178.177 112.91C175.539 112.445 172.907 111.985 170.334 111.129C169.746 110.995 169.152 110.861 168.756 111.461V111.461Z" fill="#F3D259"/>
<path d="M178.556 105.066C180.134 105.992 181.916 106.254 183.628 106.714C184.682 106.982 185.013 107.506 184.944 108.49C184.88 109.48 185.211 110.737 183.43 109.416C181.386 107.902 178.754 107.506 176.449 106.58C173.025 105.328 169.531 104.344 166.172 102.889V101.643C166.894 101.905 167.552 102.167 168.28 102.429C171.703 103.285 175.127 104.21 178.551 105.066H178.556Z" fill="#E9C02A"/>
<path d="M62.4132 53.8121C61.6268 53.6142 61.033 54.208 60.3108 54.208C60.0433 54.3364 59.717 54.4755 59.4549 54.6038C59.1232 54.6038 58.7915 54.668 58.5989 54.9997C57.5397 55.1977 57.6093 55.9199 57.9998 56.5779C58.6631 57.7013 59.8454 58.0276 60.9688 57.8297C61.9532 57.6317 62.9482 57.5675 63.9325 57.6317C65.7781 57.7013 66.3666 58.4877 65.3769 60.0712C62.8786 64.0245 63.9325 68.1759 64.4568 72.2576C65.1148 76.869 65.0506 81.4162 64.9169 86.0276C64.9169 86.9477 65.0506 88.665 63.007 88.3975C60.8351 88.0711 59.2516 86.8193 59.5833 85.3696C60.1075 82.7322 59.717 80.1644 59.8508 77.527C59.8899 77.0673 59.8272 76.6047 59.6673 76.172C59.5073 75.7393 59.254 75.3471 58.9253 75.0234C58.5294 74.6275 58.1335 73.7716 57.4113 74.237C56.5554 74.6971 56.9459 75.4193 57.2776 76.0826C56.4858 79.1105 57.0796 82.208 56.4216 85.2358C56.09 86.9477 56.8175 87.8732 58.5294 88.0712C59.4495 88.9271 60.4392 89.4514 61.5626 89.9168C63.9325 90.8369 66.2382 91.955 65.8423 95.1862C65.8423 95.3841 66.1687 95.6462 66.3024 95.8442C65.9761 97.096 65.6444 98.3478 65.3127 99.6638C62.6112 99.8617 60.5034 101.574 58.0693 102.627C55.1056 103.617 52.0777 104.607 49.1087 105.597C48.5202 105.597 47.9853 105.597 47.3968 105.661C46.9367 104.869 47.0009 104.013 46.9367 103.157C46.803 99.7975 46.9367 96.3738 46.6051 92.9447C46.2734 89.3872 45.6849 85.498 48.777 82.5343C49.9646 81.4162 51.0185 80.1644 52.0082 78.843C52.9925 77.4628 54.7098 76.4089 54.9077 74.6971C55.1056 73.0494 55.892 71.9313 56.7533 70.8079C58.8557 67.9726 58.5294 62.9707 56.0258 60.5954C55.5657 60.2049 55.0361 59.4774 54.4423 60.2049C53.9822 60.7934 53.8538 61.7189 55.0361 61.981C55.234 63.297 55.3678 64.6826 55.6299 65.9344C55.7636 66.5228 55.7636 66.9882 55.2982 67.4483C51.8745 71.1396 48.9749 75.2909 45.2195 78.7146C44.6952 75.7509 43.7751 72.7231 44.8236 69.754C45.8133 66.9187 48.7128 65.2764 50.4247 62.3127C48.6486 62.9011 47.7927 63.9604 46.7334 64.7468C46.2734 65.0784 45.6154 65.6722 45.0216 65.1426C44.4973 64.6826 45.1553 64.0887 45.3532 63.6287C46.7976 60.3333 49.1729 57.7013 51.4144 54.9997C51.7461 54.6038 53.26 54.0742 51.5481 53.4162C51.6765 53.0204 52.0082 52.7582 52.4041 52.5603C53.4579 52.4961 54.576 52.4265 53.7201 50.8484C53.9876 49.725 54.9077 49.2007 55.8278 48.6711C56.9513 48.8048 57.4755 48.0826 58.1335 47.4193C59.7812 45.8411 61.1668 44.0597 63.205 42.8721C63.7346 42.61 64.3284 41.952 64.9169 42.5511C65.3823 43.0058 64.7885 43.5996 64.6547 44.1293C64.5905 44.4556 64.1947 44.7177 64.0663 44.9852C63.2745 46.895 61.4984 48.211 60.4392 50.5167C62.4186 49.6608 62.8786 47.9489 64.1305 47.0288C64.5905 46.6971 64.9169 46.0391 65.5107 46.237C66.3024 46.435 65.9761 47.1572 66.1045 47.6814C66.5645 49.2649 66.5003 50.9126 66.5003 52.5603C65.2485 52.9562 63.7988 53.4162 62.4132 53.8121V53.8121Z" fill="#FDE686"/>
<path d="M66.3497 95.7088C66.2213 95.5109 65.8897 95.2487 65.8897 95.0508C66.2855 91.825 63.9798 90.7016 61.6099 89.7814C60.4865 89.3214 59.4326 88.7917 58.5767 87.9358L58.9726 80.7566C59.037 79.4918 58.9034 78.2247 58.5767 77.0012C58.3788 76.2094 57.9187 76.0115 57.2607 76.0115C56.929 75.3535 56.5331 74.6259 57.3944 74.1658C58.1808 73.77 58.5125 74.5617 58.9084 74.9576C59.2314 75.2852 59.4806 75.678 59.6393 76.1098C59.798 76.5417 59.8625 77.0024 59.8285 77.4612C59.7001 80.0986 60.096 82.6664 59.5664 85.3038C59.2347 86.8177 60.8182 88.0054 62.9902 88.3317C65.0337 88.6634 64.8358 86.9461 64.9 85.9618C65.0337 81.3504 65.0979 76.8032 64.4399 72.1918C63.8514 68.1047 62.8618 63.9534 65.3654 60.0054C66.3497 58.4219 65.7613 57.6997 63.9156 57.5659C62.9233 57.5004 61.9267 57.567 60.9519 57.7639C59.8285 57.9618 58.6462 57.6301 57.9829 56.5121C57.5924 55.854 57.5228 55.1265 58.5767 54.9286C58.4483 56.1804 59.2347 56.71 60.2244 56.9721C60.8824 57.1701 61.4762 57.1059 61.6099 56.2499H63.3218C63.9798 56.9079 64.4452 56.7742 64.5736 55.8541H65.4296C66.0876 56.5121 66.2213 55.9824 66.2855 55.4582H67.5373C69.5167 55.9182 70.8969 54.4685 72.4804 53.7463C73.2026 53.4146 73.9248 52.3607 74.5882 53.6126C75.1124 54.5327 74.5186 55.196 73.6627 55.6561L71.0948 57.0363C71.3623 57.8281 71.8866 57.6997 72.3467 57.5659C74.3902 56.71 75.2462 57.6301 75.4441 59.5453C75.5778 60.7276 75.5778 61.9152 75.642 63.167C75.7704 68.7627 75.3104 74.3638 76.1021 79.9649C73.9943 82.9927 71.5549 85.6943 69.7146 88.9255C68.4575 91.0974 67.6711 93.5369 66.3497 95.7088V95.7088Z" fill="#FADE75"/>
<path d="M46.146 115.741C47.5262 114.751 46.9377 113.761 46.146 112.713C46.5418 112.445 47.0019 112.119 47.3978 111.857C50.6878 111.392 53.7853 110.209 56.8131 108.888C59.1884 108.032 61.6278 107.112 63.9977 106.256C63.9977 107.112 64.0619 108.032 64.0619 108.888C58.3324 111.723 52.603 114.558 46.1406 115.741H46.146Z" fill="#F0CC4B"/>
<path d="M64.0611 106.257C61.6912 107.113 59.2518 108.033 56.8819 108.889C56.7535 106.653 58.4654 104.738 58.1337 102.502C60.5036 101.448 62.6167 99.736 65.3825 99.5381C64.917 101.71 64.5265 104.016 64.0611 106.257V106.257Z" fill="#FBE27D"/>
<path d="M44.5078 116.134C44.8341 115.604 45.2996 115.738 45.8238 115.738C45.4279 116.198 44.9679 116.134 44.5078 116.134Z" fill="#F0CC4B"/>
<path d="M87.1875 118.702C88.3109 115.803 91.0767 114.947 93.3824 113.497C94.3025 112.909 95.1585 112.379 95.7523 111.459C96.2819 111.919 96.8757 112.315 97.3999 112.775C98.5234 114.219 99.8394 115.477 101.22 116.595C100.562 118.307 98.7802 118.638 97.4641 119.494C95.8165 120.618 96.0786 121.404 97.3999 122.329C99.3793 123.581 101.353 124.764 103.327 126.021C105.633 127.139 107.875 128.321 110.175 129.444C110.175 130.889 109.651 131.745 108.072 131.616C107.875 131.285 107.543 131.221 107.217 131.221C106.885 130.696 106.425 130.825 105.965 130.825C105.767 130.498 105.435 130.429 105.109 130.429C102.734 129.247 100.497 127.663 97.86 127.005C97.3304 126.347 96.544 126.149 95.7523 126.149L95.3564 125.753C94.7679 125.486 94.233 125.165 93.6445 124.897C92.061 122.592 89.4932 121.404 87.7118 119.36C87.5624 119.122 87.3866 118.901 87.1875 118.702V118.702Z" fill="#EDC83D"/>
<path d="M95.2891 125.555L95.6849 125.951L95.2891 125.555Z" fill="#D5B041"/>
<path d="M51.7517 53.3506C53.4636 54.0086 51.9443 54.5329 51.6179 54.9287C49.3764 57.6998 47.0066 60.2677 45.5568 63.563C45.3589 64.0231 44.7009 64.5474 45.2251 65.077C45.8189 65.6012 46.4769 65.0074 46.937 64.6811C47.9962 63.8894 48.8522 62.8997 50.6283 62.2417C48.8522 65.2749 46.0169 66.8531 45.0272 69.6884C43.9733 72.6521 44.8988 75.68 45.4231 78.649C45.0967 79.7724 44.2996 80.5588 43.5774 81.4148C43.3153 81.7464 42.791 82.0728 43.0532 82.4686C43.5132 83.2604 44.4976 83.1962 45.2947 83.5225C45.7547 83.7205 46.0811 83.4583 46.2148 82.9341C46.9424 80.623 48.7826 79.1091 50.2324 77.333C52.1422 74.824 54.3195 72.4541 56.224 69.9505C58.1391 67.4469 57.5453 63.4935 55.1754 61.8458C54.052 61.5837 54.1216 60.6635 54.587 60.0697C55.1112 59.3422 55.6997 60.0697 56.1651 60.4656C58.6688 62.8355 59.0004 67.8481 56.8873 70.678C56.0314 71.8603 55.2396 72.9142 55.0417 74.5619C54.8438 76.2096 53.1319 77.333 52.1422 78.7132C51.2221 80.0292 50.104 81.281 48.9164 82.4044C45.7547 85.3681 46.3485 89.252 46.7444 92.8148C47.0707 96.2386 46.9424 99.5982 47.0707 103.022C47.0707 103.878 47.0708 104.734 47.5308 105.526C44.3745 106.911 40.9454 106.649 37.7142 107.237C36.4624 107.237 35.1464 107.237 33.8946 107.173C33.7662 98.7422 33.1724 90.3112 33.4345 81.8748C33.4345 81.479 33.4345 81.0189 33.3008 80.623C32.7123 77.6593 33.3008 77.0655 36.0719 77.8573C37.4521 78.2531 37.848 77.5256 38.1101 76.4717C38.9019 75.8137 39.9557 75.3536 40.0199 73.7059L38.506 74.9578C37.7838 75.6158 37.0616 75.8137 36.2645 75.1557C35.4085 74.4977 35.8044 73.8397 36.1361 73.1121C36.334 72.6521 36.334 72.192 36.4624 71.6677C36.7941 70.876 37.7838 70.5443 37.7142 69.4904L38.1101 69.0946C38.8377 68.6987 39.3619 68.2386 39.4315 67.3827C41.3413 65.7992 42.6573 63.6914 44.1712 61.7816C46.4127 58.8821 49.1785 56.1805 51.7517 53.3506V53.3506Z" fill="#FADE75"/>
<path d="M44.0414 29.3675C44.9669 29.1 45.3628 27.9873 46.4808 28.0515C47.4063 28.64 47.0746 29.5654 47.0746 30.3518C46.9463 37.5364 47.2726 44.6514 47.5347 51.836C47.5347 52.4244 47.4705 52.954 48.0001 53.3499C43.8488 58.4214 39.3016 63.1665 34.6902 67.9063C34.3394 66.7544 34.1839 65.552 34.2302 64.3488C34.5565 56.6453 33.8343 49.0007 33.8343 41.2918C33.8343 40.7034 33.9627 39.9758 33.3047 39.58C35.482 36.4183 38.7078 34.3106 41.4094 31.6732C42.1369 30.8815 43.1213 30.1593 44.0468 29.3729L44.0414 29.3675Z" fill="#FBE179"/>
<path d="M34.6587 67.977C39.2701 63.2961 43.8173 58.5563 47.9686 53.4153C53.2015 47.9653 58.2977 42.3857 63.2525 36.6817C66.5426 33.06 70.1001 29.5667 73.0691 25.6133C74.781 23.6339 76.6908 22.3179 79.4566 23.4413C80.2483 23.7677 81.1043 24.0298 81.896 24.4257C82.3561 24.6236 83.212 24.4952 83.1478 25.2174C83.0141 25.945 82.2919 25.945 81.6285 26.0092C77.6805 24.1635 75.3053 24.6236 72.6732 28.577C72.4058 29.1066 72.0794 29.6309 71.8173 30.2247C70.8918 30.2247 70.4317 30.9522 69.9021 31.4765C67.2006 34.3118 64.4348 37.0133 61.867 39.977C59.9572 42.2185 57.8494 44.1284 55.9396 46.3003C49.5847 53.4146 43.2809 60.5744 37.0286 67.7791C34.9904 70.149 32.6152 72.1925 31.235 75.0225C29.1219 74.9583 29.3894 73.9686 30.379 72.7863C31.695 71.1387 33.7386 70.0152 34.6587 67.9717V67.977Z" fill="#E9C02A"/>
<path d="M31.2656 75.1552C32.6458 72.3199 35.0853 70.2817 37.0593 67.9065C43.3116 60.7037 49.6154 53.5457 55.9702 46.4331C57.8801 44.2558 60.052 42.2818 61.8976 40.1045C64.4013 37.1408 67.2366 34.4392 69.9328 31.6092C70.4624 31.0796 70.9225 30.3574 71.8479 30.3574C72.7039 31.2776 71.65 31.6092 71.2541 32.0051C68.8789 34.4392 66.509 36.8144 64.1391 39.1843C63.6095 39.7139 62.8873 40.174 62.8873 41.0299L56.6924 47.0215C56.4483 47.2291 56.2602 47.4945 56.1452 47.7936C56.0302 48.0927 55.9922 48.4158 56.0344 48.7334C55.1143 49.2684 54.1888 49.7231 53.9267 50.9107C52.8032 50.9749 52.5411 51.7025 52.6107 52.6226C52.4123 52.6908 52.2322 52.8034 52.0838 52.9517C51.9355 53.1 51.823 53.2802 51.7547 53.4785C49.1869 56.3138 46.4158 58.9512 44.0459 61.9845C42.5266 63.8889 41.2748 65.9967 39.3008 67.5802C38.1774 67.6444 37.9848 68.3719 37.9848 69.2921L37.5889 69.6879C36.5709 70.1296 35.6675 70.7984 34.9479 71.6431C34.2284 72.4879 33.7117 73.4862 33.4376 74.5614C32.9775 76.6692 32.3142 76.0112 31.2656 75.1552V75.1552Z" fill="#F0CC4B"/>
<path d="M36.3153 71.7344C36.1816 72.1944 36.1816 72.7187 35.9836 73.1788C35.6573 73.9063 35.2614 74.5697 36.1174 75.2223C36.9733 75.8161 37.6955 75.6878 38.3589 75.0244C38.7494 74.6285 39.2148 74.3022 39.8728 73.7726C39.7391 75.4203 38.7494 75.8803 37.963 76.5437C36.5132 76.6079 34.8602 76.2762 34.3359 74.9602C33.9401 73.5158 35.5235 72.6599 36.3153 71.7344Z" fill="#F9DD6F"/>
<path d="M37.6202 107.175C40.9155 106.587 44.3393 106.849 47.4367 105.464C48.0252 105.464 48.5602 105.464 49.1486 105.399C48.5602 107.507 48.0252 109.679 47.4367 111.787C47.0409 112.054 46.5808 112.381 46.1849 112.643L38.0802 113.83C36.1704 114.157 35.7799 113.766 36.2346 111.921C36.6305 110.407 37.1601 108.823 37.6255 107.175H37.6202Z" fill="#F3D259"/>
<path d="M175.99 64.6208C177.044 65.7389 178.558 65.343 179.81 65.8031C179.81 66.659 179.221 67.2528 178.756 67.8466C174.803 72.5918 170.715 77.2673 166.826 82.0767C164.852 84.4519 162.616 86.6238 161.102 89.3254H160.637C158.401 86.03 156.485 82.4725 153.853 79.5088L153.393 79.0488C153.324 77.8611 152.27 77.2031 152.008 76.0851C152.339 75.9513 152.73 75.9513 152.928 75.6892C155.175 73.0518 157.539 70.4145 159.647 67.5845C160.706 66.1347 162.547 65.2788 162.75 63.1711C167.228 63.0373 171.507 64.2945 175.99 64.6155V64.6208Z" fill="#FDE686"/>
<path d="M161.031 89.2596C162.545 86.5581 164.851 84.3808 166.766 82.0109C170.714 77.1962 174.737 72.5206 178.69 67.7809C179.15 67.1871 179.744 66.5932 179.744 65.7373C182.312 66.4649 184.88 67.1229 187.448 67.8451C188.502 68.4335 189.561 69.0969 190.872 69.1611C190.941 71.3384 189.095 72.4564 187.977 73.9062C185.538 77.0678 182.842 80.0315 180.204 83.0648C179.725 83.5952 179.425 84.2637 179.348 84.9746C176.513 85.8305 173.678 86.8202 171.046 88.1362C167.884 89.6502 164.722 91.4958 161.031 89.2596V89.2596Z" fill="#FBE179"/>
<path d="M162.735 63.1671C162.607 65.2107 160.697 66.1308 159.638 67.5805C157.53 70.4159 155.224 72.9837 152.919 75.6852C152.721 75.8832 152.261 75.9474 151.999 76.0811C151.271 75.0914 150.613 74.8935 150.089 76.2737C149.693 77.1992 149.431 78.1193 148.901 78.9753C147.911 80.5588 148.243 81.7464 149.559 82.934C149.955 84.3784 151.603 85.1701 151.667 86.7536H150.747C149.559 86.3578 148.441 85.8281 147.253 85.4965C143.562 84.3784 139.941 83.2603 136.255 82.1369C136.185 80.9546 136.913 80.0987 137.571 79.3016C140.866 75.3536 144.354 71.5339 147.585 67.4468C148.767 66.0024 150.549 64.879 150.811 62.8354C153.513 62.8354 156.214 62.7712 158.916 62.7712C160.167 62.8996 161.483 62.5037 162.735 63.1671V63.1671Z" fill="#FBE27D"/>
<path d="M168.275 102.431C167.548 102.169 166.89 101.907 166.168 101.644C165.707 101.511 165.312 101.313 164.846 101.179C163.728 101.115 163.204 101.511 163.134 102.763C163.07 104.014 164.188 105.202 163.204 106.384C162.214 107.572 160.636 106.85 159.448 107.438C159.379 107.438 159.379 107.572 159.315 107.572H158.459C158.395 106.85 157.865 106.78 157.271 106.716C155.757 106.582 154.307 106.058 152.922 105.464C153.451 104.806 154.243 105.132 154.901 105.004C155.693 104.934 156.479 104.806 156.747 103.881C156.945 102.96 156.217 102.629 155.495 102.169C154.57 101.58 153.248 101.644 152.927 100.259C154.109 100.655 155.361 100.986 156.549 101.382C157.731 101.773 159.053 102.367 160.106 101.249C161.091 100.195 160.631 98.8734 160.369 97.6269L160.171 96.8351C160.898 96.8351 161.294 97.3594 161.754 97.7553C163.664 99.5367 163.99 97.0331 164.98 96.4393C166.232 95.7117 165.376 94.9895 164.712 94.262C164.124 93.604 162.872 93.7377 162.738 92.5501C165.841 94.0694 168.735 93.3418 171.699 92.1542C172.555 91.8279 174.074 90.9024 174.465 92.2238C174.861 93.6682 173.481 94.7916 172.095 94.9895C169.131 95.3158 167.286 97.3594 164.648 98.9429C165.97 98.9429 165.9 98.8787 168.072 97.6911C168.998 97.1615 170.249 96.0434 171.041 96.8351C171.961 97.7553 170.314 98.547 169.918 99.4672C169.458 100.591 168.077 101.051 168.275 102.431V102.431Z" fill="#F9DD6F"/>
<path d="M161.014 89.2582C164.636 91.4944 167.803 89.6487 171.029 88.0706C173.666 86.7546 176.496 85.8291 179.332 84.909C181.108 84.4489 182.889 84.053 184.665 83.4592C186.179 82.9938 186.313 83.7214 186.115 84.8394C185.986 85.6312 185.719 86.4229 185.457 87.4768C183.873 85.9629 182.295 86.7492 180.781 87.2093C176.823 88.3969 172.939 89.6487 169.253 91.5586C166.685 92.8799 162.4 92.0882 160.49 90.1142C160.223 89.8467 160.158 89.5204 160.554 89.2582H161.014V89.2582Z" fill="#E9C02A"/>
<path d="M152.476 85.8313C152.54 84.5795 151.684 83.5898 151.353 82.4075C151.16 81.7495 151.224 81.3536 151.888 81.022C152.546 80.6261 152.936 80.9578 153.332 81.4178C155.574 83.9857 157.221 86.9494 158.403 90.1163C158.997 91.7587 156.89 91.5607 156.692 92.6842C156.103 92.4167 155.707 91.7587 154.98 91.8282C154.52 90.6406 153.402 90.5069 152.412 90.1163C152.348 89.1909 152.808 88.3349 153.07 87.479C153.402 86.6872 153.6 86.0292 152.481 85.8313H152.476Z" fill="#FBE27D"/>
<path d="M156.766 92.6186C156.964 91.4952 159.066 91.6931 158.478 90.0508C160.056 90.6392 160.917 92.4207 162.757 92.6186C162.891 93.8009 164.079 93.7367 164.737 94.3305C165.395 94.9885 166.251 95.7107 164.999 96.5024C164.009 97.0963 163.683 99.5357 161.773 97.8184C161.307 97.4226 160.917 96.8983 160.189 96.8983C159.066 95.5128 157.884 94.063 156.766 92.6186V92.6186Z" fill="#FBE179"/>
<path d="M150.737 86.6873H151.657V87.5432C151.528 87.677 151.395 87.8107 151.261 88.0086H148.693C146.037 87.004 143.272 86.318 140.455 85.9651C139.534 85.8313 138.154 85.1733 137.56 86.7568C135.388 86.4251 133.409 85.2375 131.168 85.4355C130.713 85.0356 130.274 84.618 129.852 84.1837C130.772 82.4076 132.291 82.7392 133.741 83.1298C138.55 84.3816 143.29 85.6334 148.099 86.8852C149.025 87.0832 149.881 87.1527 150.737 86.6873Z" fill="#F3D259"/>
<path d="M185.356 96.1067C186.409 96.8342 187.137 99.2683 186.543 100.322C186.276 100.788 185.885 100.852 185.489 100.718C184.901 100.456 183.842 100.59 183.777 99.7337C183.777 98.0218 182.461 97.8881 181.402 97.5564C179.76 97.0322 178.31 96.3046 177.711 94.459C180.348 94.459 182.724 95.9783 185.361 96.1067H185.356Z" fill="#E9C02A"/>
<path d="M149.504 82.8009C148.252 81.6775 147.857 80.4256 148.846 78.8422C149.371 78.0558 149.702 77.0661 150.029 76.1459C150.558 74.7604 151.216 74.9583 151.944 75.948C152.142 77.0714 153.26 77.7241 153.324 78.9117C151.345 78.7138 150.36 79.6339 150.296 81.6133C150.36 82.2713 150.232 82.8009 149.504 82.8009Z" fill="#EDC83D"/>
<path d="M151.211 87.9439C151.345 87.8048 151.478 87.6764 151.607 87.4785C152.73 87.3447 152.399 86.4246 152.463 85.7666C153.517 85.9645 153.319 86.6867 153.121 87.4143C152.859 88.2702 152.399 89.1262 152.463 90.0463C150.751 90.18 151.339 88.864 151.211 87.9385V87.9439Z" fill="#FBE179"/>
<path d="M153.344 78.9746L153.804 79.44C153.685 79.2539 153.528 79.0953 153.344 78.9746V78.9746Z" fill="#EDC83D"/>
<path d="M56.0246 48.6752C55.9823 48.3576 56.0204 48.0345 56.1353 47.7354C56.2503 47.4363 56.4384 47.1709 56.6826 46.9633L62.8774 40.9664C63.8618 40.9664 64.3218 40.1105 64.9156 39.5755C68.0826 36.6171 70.8484 33.2576 74.3417 30.6202C74.9302 30.1601 75.5882 29.5663 76.182 30.0959C76.7758 30.6202 76.182 31.4761 75.8556 32.0058C75.0639 33.3218 74.1438 34.5736 72.9561 36.2855C74.4005 36.018 74.866 35.162 75.3956 34.4398C75.8556 33.8514 76.2515 32.9259 77.1717 33.1238C78.1613 33.3913 77.8297 34.3756 77.8297 35.1674C77.8992 36.2213 77.8297 37.2751 77.8297 38.3932C77.8297 39.0512 77.8297 39.7146 78.7551 39.7788C77.1717 42.5445 74.7322 44.5881 72.8224 47.0917C71.7043 48.6057 70.3188 49.927 69.1312 51.441C68.4732 52.2274 67.8151 52.6232 66.7613 52.5591C66.7613 50.9114 66.8308 49.3332 66.3654 47.6855C66.237 47.1559 66.5633 46.4337 65.7769 46.2358C65.1189 46.102 64.7873 46.6959 64.3914 47.0275C63.1396 47.9477 62.7437 49.6596 60.7001 50.5155C61.8236 48.2151 63.5996 46.8938 64.3272 44.984C64.4556 44.6523 64.7873 44.3902 64.9156 44.128C65.0494 43.5984 65.6432 43.0046 65.1831 42.5445C64.5893 41.9561 63.9955 42.6087 63.4712 42.8762C61.4919 43.9996 60.0475 45.8399 58.3944 47.4234C57.6722 48.0119 57.0784 48.8036 56.0246 48.6699V48.6752Z" fill="#FADE75"/>
<path d="M79.4622 23.5081C76.6964 22.3846 74.7866 23.706 73.0747 25.68C72.5451 24.2998 72.6788 22.9142 72.6093 21.4645C72.5451 18.8325 73.0051 16.1951 72.2188 13.6915C74.4447 12.8 76.7335 12.0741 79.0663 11.5195C79.9222 15.4729 79.2642 19.4905 79.4622 23.5081V23.5081Z" fill="#F9DD6F"/>
<path d="M72.6328 28.6445C75.2702 24.6858 77.7096 24.1615 81.5934 26.0767C81.5934 26.8631 81.2671 27.7886 80.4112 27.061C77.9076 25.0174 76.3241 26.7935 74.5426 28.1844C74.0184 28.6445 73.5583 29.5004 72.6328 28.6445V28.6445Z" fill="#F0CC4B"/>
<path d="M72.2204 13.6875C73.0068 16.2553 72.5467 18.8927 72.6109 21.4605C72.6804 22.8461 72.5467 24.2958 73.0763 25.676C70.0431 29.6348 66.5497 33.0585 63.2597 36.7498C62.7301 34.3103 62.928 31.8067 62.7943 29.3673C62.6659 25.5476 63.1902 21.728 62.3984 17.9726C64.3136 16.5228 66.6193 15.8648 68.7912 15.0035C69.9147 14.4792 71.0327 14.0834 72.215 13.6875H72.2204Z" fill="#FBE179"/>
<path d="M129.857 84.1184C130.317 84.5143 130.713 84.9102 131.173 85.3702C130.451 87.0821 128.471 88.0718 128.209 90.0458C126.562 89.5858 124.914 89.2594 123.336 88.6656C122.148 88.2002 121.554 88.5961 121.228 89.65C120.698 91.0355 120.105 92.4211 119.318 93.6729C117.933 95.8448 117.997 96.0428 120.57 96.7008L121.362 96.8987L121.822 97.3588C121.752 97.6263 121.752 97.9526 121.554 98.1505C117.601 102.896 113.519 107.571 109.63 112.381C107.854 114.552 105.548 116.334 104.762 119.164C103.638 118.308 102.451 117.452 101.333 116.66C99.8984 115.557 98.6127 114.274 97.5078 112.841C98.5617 109.813 101.135 107.833 103.045 105.399C107.854 99.5361 112.792 93.8708 117.735 88.0665C122.87 81.9411 128.081 75.88 133.088 69.6905C134.533 67.909 136.448 66.3951 137.234 64.0894C141.717 63.1693 146.329 62.7092 150.876 62.8376C150.544 64.9453 148.763 65.9992 147.645 67.449C144.419 71.4665 140.99 75.3557 137.63 79.3091C136.972 80.1009 136.186 80.9568 136.314 82.1444C134.335 81.9465 132.494 81.2189 130.585 80.6251C129.729 80.3576 129.001 80.2988 128.605 81.1547C128.145 82.0107 126.958 82.5991 127.353 83.6584C127.621 84.3164 128.739 84.2468 129.461 84.2468C129.595 84.1184 129.729 84.1184 129.857 84.1184V84.1184Z" fill="#F9DD6F"/>
<path d="M93.1278 106.78C92.7324 106.193 92.3149 105.622 91.876 105.068C88.7839 96.1767 91.1538 88.5321 97.3487 81.813C105.186 73.4461 115.329 69.2306 126.071 66.1332L127.258 65.7373C127.387 66.5932 126.793 67.1817 126.269 67.7809C125.017 69.1611 123.829 70.5466 122.642 71.9322C118.56 76.8003 114.542 81.6792 110.455 86.5581C106.898 90.8378 103.41 95.187 99.649 99.3383C97.5413 101.842 95.8989 104.741 93.1278 106.78Z" fill="#F3D259"/>
<path d="M93.1172 106.778C95.8188 104.798 97.5306 101.84 99.7721 99.4006C103.463 95.2493 106.951 90.9 110.578 86.6149C114.66 81.7468 118.683 76.8679 122.765 71.9944C123.952 70.6088 125.135 69.2286 126.387 67.8431C126.916 67.2546 127.446 66.7197 127.376 65.7995C130.672 65.2753 133.833 64.2214 137.193 64.0234C136.401 66.3238 134.491 67.8431 133.041 69.6245C127.97 75.814 122.829 81.8752 117.688 88.0005C112.82 93.7995 107.813 99.4648 103.003 105.333C101.024 107.703 98.5203 109.677 97.4664 112.769C96.9422 112.315 96.343 111.913 95.8187 111.459C94.7579 109.997 93.8525 108.428 93.1172 106.778V106.778Z" fill="#F6D867"/>
<path d="M62.4053 17.9033C63.1971 21.6588 62.737 25.5479 62.8012 29.298C62.8707 31.7375 62.6728 34.2411 63.2666 36.6805C58.2755 42.3521 53.18 47.931 47.9827 53.4142C47.4531 53.0183 47.5173 52.4245 47.5173 51.9002C47.3193 44.7852 46.9288 37.606 47.0572 30.4215C47.0572 29.6297 47.3889 28.7096 46.4688 28.1211C47.7848 26.1418 49.9567 25.35 51.7381 23.9645C53.45 22.6484 55.4294 21.5946 57.2697 20.4765C58.9815 19.6847 60.4955 18.3687 62.4053 17.9087V17.9033Z" fill="#FDE686"/>
<path d="M105.973 130.631C106.433 130.631 106.957 130.561 107.225 131.021C106.76 131.091 106.299 131.155 105.973 130.625V130.631ZM107.22 131.091C107.551 131.091 107.883 131.155 108.076 131.481C107.755 131.481 107.423 131.417 107.22 131.091ZM105.117 130.229C105.444 130.229 105.775 130.299 105.973 130.625C105.577 130.625 105.315 130.561 105.117 130.229Z" fill="#F0CC4B"/>
<path d="M157.597 108.031V108.427C157.201 110.604 155.356 111.787 154.104 113.37C149.953 118.575 145.603 123.642 141.318 128.783C141.038 129.094 140.824 129.459 140.689 129.855C140.554 130.251 140.5 130.671 140.532 131.088C136.381 130.366 132.294 129.644 128.148 128.98C128.119 128.558 128.18 128.135 128.328 127.738C128.475 127.341 128.706 126.981 129.004 126.68C133.877 120.945 138.82 115.216 143.629 109.417C144.753 108.101 146.261 106.977 146.529 105.068C147.513 104.934 148.439 105.399 149.364 105.656C152.13 106.453 154.767 107.635 157.597 108.031V108.031Z" fill="#FBE179"/>
<path d="M128.163 128.92C132.315 129.642 136.402 130.364 140.548 131.022C141.998 130.958 143.383 131.68 144.827 131.482C144.763 132.536 143.907 132.868 143.116 133.392C141.933 134.248 140.28 134.58 139.692 136.163C133.671 135.799 127.718 134.692 121.968 132.868C121.642 132.734 121.246 132.734 120.915 132.67C120.786 131.225 122.166 131.022 122.958 130.364C123.878 129.642 125.328 129.508 125.596 127.994C126.451 128.39 127.307 128.652 128.163 128.914V128.92Z" fill="#FDF48B"/>
<path d="M139.672 136.231C140.26 134.647 141.913 134.321 143.096 133.465C143.823 132.935 144.743 132.609 144.808 131.555C148.039 131.223 151.136 132.079 154.362 132.015C154.956 132.015 155.614 132.015 155.154 132.935C154.496 134.187 147.975 137.418 146.461 137.087C144.347 136.562 142.24 136.819 140.132 136.76C139.934 136.493 139.806 136.364 139.672 136.231V136.231Z" fill="#FBE179"/>
<path d="M110.226 129.376C107.925 128.258 105.679 127.076 103.378 125.952C103.245 124.898 103.838 124.502 104.625 123.973C105.748 123.251 107.326 122.919 107.594 121.207C109.37 121.207 110.429 123.117 112.269 122.919C113.981 124.502 116.223 124.962 118.261 125.888C117.999 127.53 116.485 127.798 115.431 128.52C114.773 128.98 113.987 129.178 113.987 130.168C112.596 130.499 111.547 129.248 110.226 129.376Z" fill="#F6D867"/>
<path d="M114.062 130.231C114.062 129.247 114.918 129.049 115.507 128.589C116.566 127.861 118.075 127.529 118.342 125.951C120.782 126.673 123.216 127.396 125.591 128.059C125.323 129.573 123.879 129.707 122.954 130.429C122.098 131.087 120.782 131.221 120.91 132.735C118.61 132.012 116.17 131.483 114.062 130.231V130.231Z" fill="#FBE179"/>
<path d="M67.5629 55.523H66.3111V55.063C67.0387 54.405 68.023 54.4745 68.8789 54.207C68.8789 55.1272 67.8251 54.9292 67.5629 55.523ZM63.2832 56.379H61.5713C60.4479 56.3148 59.0677 56.5769 59.4582 54.6671C59.7257 54.5334 60.052 54.3996 60.3142 54.2712C60.4479 56.7749 62.2935 55.063 63.2832 55.523V56.379Z" fill="#F3D259"/>
<path d="M63.2734 56.3795V55.5235H64.5253V55.9836C64.3915 56.8396 63.9314 57.0375 63.2734 56.3795ZM66.2318 55.0635V55.5235C66.1676 56.0532 66.0392 56.5774 65.3758 55.9194V55.0635H66.2318Z" fill="#F9DD6F"/>
<path d="M65.3872 55.0635V55.9194H64.5312V55.4594C64.7345 55.1277 65.0662 55.0635 65.3872 55.0635Z" fill="#F3D259"/>
<path d="M159.317 107.572C159.381 107.507 159.381 107.438 159.451 107.438C160.633 106.849 162.216 107.572 163.206 106.384C164.26 105.202 163.072 103.95 163.137 102.762C163.206 101.575 163.795 101.115 164.848 101.179V102.431C164.26 104.014 165.704 104.212 166.56 104.736C167.748 105.4 169 105.79 170.187 106.384C171.107 106.849 172.359 107.309 172.033 108.631C171.701 109.808 170.514 109.679 169.529 109.679C165.972 109.813 162.612 108.888 159.312 107.572H159.317ZM157.605 108.032C154.705 107.636 152.068 106.453 149.367 105.662C148.446 105.394 147.521 104.934 146.531 105.073V104.212C147.986 104.479 149.367 104.8 150.816 105.068C151.148 105.598 151.608 105.464 152.068 105.464H152.924C154.31 106.052 155.759 106.651 157.273 106.716C157.867 106.78 158.397 106.849 158.461 107.572C158.193 107.769 157.867 107.903 157.605 108.032V108.032Z" fill="#F6D867"/>
<path d="M164.836 102.493V101.246C165.301 101.374 165.692 101.572 166.157 101.706V102.958C165.728 102.775 165.286 102.621 164.836 102.498V102.493Z" fill="#F0CC4B"/>
<path d="M47.4375 111.857C48.026 109.743 48.5609 107.571 49.1494 105.464C52.1131 104.474 55.141 103.484 58.11 102.5C58.4417 104.8 56.7298 106.651 56.8582 108.887C53.8303 110.209 50.7329 111.391 47.4375 111.857V111.857Z" fill="#F9DD6F"/>
<path d="M55.1176 61.918C57.4875 63.5657 58.0813 67.4495 56.1715 70.0173C54.2617 72.5209 52.0844 74.8962 50.1745 77.3998C48.789 79.2454 46.8792 80.6952 46.157 82.9955C46.0232 83.5305 45.6273 83.7231 45.2315 83.5893C44.4451 83.263 43.4554 83.3272 42.9953 82.5355C42.7278 82.1396 43.2575 81.8133 43.5196 81.4816C44.2471 80.6256 45.0335 79.8339 45.3652 78.7158C49.0565 75.2921 52.0202 71.1407 55.4439 67.4495C55.904 66.9894 55.904 66.5294 55.7756 65.9355C55.4439 64.55 55.3102 63.234 55.1176 61.918V61.918Z" fill="#EDC83D"/>
<path d="M57.29 75.9507C57.948 75.9507 58.4134 76.1486 58.606 76.9403C58.9377 78.1922 59.0019 79.444 59.0019 80.6958C58.8735 83.1299 58.7344 85.4998 58.606 87.875C56.8941 87.6771 56.1719 86.8211 56.4983 85.0397C57.0279 82.1402 56.4983 78.9786 57.29 75.9453V75.9507Z" fill="#F0CC4B"/>
<path d="M59.3568 54.667C59.0305 56.5768 60.3465 56.3147 61.4645 56.3789C61.3362 57.3044 60.7423 57.3044 60.0843 57.1064C59.0947 56.7747 58.3029 56.3147 58.4367 55.0629C58.6988 54.7312 59.0251 54.667 59.3568 54.667V54.667Z" fill="#F9DD6F"/>
<path d="M52.5884 52.4961C52.5188 51.5706 52.7863 50.8484 53.9044 50.7842C54.7603 52.3623 53.6369 52.4265 52.5884 52.4961Z" fill="#FADE75"/>
<path d="M107.664 121.27C107.396 122.982 105.818 123.314 104.7 124.041C103.908 124.566 103.25 124.962 103.448 126.021C101.469 124.764 99.4304 123.646 97.5153 122.33C96.1351 121.404 95.9371 120.618 97.5848 119.494C98.9008 118.638 100.682 118.307 101.34 116.595C102.464 117.451 103.641 118.307 104.764 119.098C105.684 119.756 106.872 120.222 107.664 121.276V121.27Z" fill="#F0CC4B"/>
<path d="M38.0403 69.167C37.9761 68.2415 38.2382 67.5139 39.3563 67.4551C39.2921 68.311 38.7678 68.7657 38.0403 69.167V69.167Z" fill="#F6D867"/>
<path d="M129.888 84.1178H129.492C128.7 84.1178 127.646 84.2462 127.384 83.5294C126.988 82.5343 128.176 81.8763 128.636 81.0204C129.096 80.1644 129.759 80.2982 130.615 80.4961C132.525 81.0846 134.307 81.8121 136.345 82.0101C140.036 83.1335 143.727 84.2462 147.349 85.3696C148.531 85.7655 149.649 86.2256 150.837 86.6214C149.981 87.0815 149.125 87.0173 148.205 86.8194C143.436 85.4977 138.647 84.2458 133.841 83.0639C132.263 82.6681 130.744 82.3364 129.888 84.1178V84.1178Z" fill="#E9C02A"/>
<path d="M150.751 105.001C149.301 104.734 147.916 104.407 146.471 104.145C146.14 103.22 145.214 103.155 144.556 103.022C140.421 102.127 136.383 100.826 132.503 99.1379C131.845 98.8062 131.054 98.4799 130.326 99.0683C129.738 98.8062 129.208 98.4799 128.614 98.2124C128.486 97.0301 127.234 97.1585 126.704 96.5005C126.308 96.0404 125.517 95.7087 125.913 94.9865C126.18 94.3927 126.838 94.5265 127.432 94.3927C129.01 94.0611 130.524 94.9812 132.107 94.3927H132.963C133.028 94.9223 133.161 95.4466 133.819 94.7886C135.601 95.3182 137.313 95.9762 139.089 96.3026C143.903 97.0943 148.247 99.4642 153.057 100.32C153.388 101.641 154.704 101.641 155.624 102.23C156.282 102.626 157.074 102.957 156.876 103.942C156.678 104.867 155.822 104.932 155.031 105.065C154.373 105.129 153.586 104.798 153.057 105.525H152.201C151.869 104.541 151.473 104.343 150.751 105.001Z" fill="#FBE27D"/>
<path d="M152.928 100.321C148.119 99.4649 143.775 97.095 138.966 96.3086C137.184 95.977 135.472 95.3136 133.691 94.7893C133.493 94.4577 133.167 94.3935 132.835 94.3935H131.979C129.802 93.4625 127.49 92.8846 125.131 92.6816C123.612 92.5478 123.018 93.6713 122.692 94.8535C122.36 96.1749 123.414 96.5654 124.34 96.8971C125.72 97.3572 127.175 97.8172 128.555 98.2131C129.144 98.4806 129.679 98.8069 130.267 99.069V99.5345C127.303 99.267 124.666 97.753 121.708 97.4214C121.549 97.2721 121.393 97.1186 121.242 96.9613C121.242 93.2058 122.687 90.3063 127.828 91.954C136.59 94.6556 145.615 96.6992 154.249 99.7966C155.17 100.128 156.095 100.455 157.144 100.455C158 100.455 158.534 100.187 158.401 99.2028C157.733 96.9628 156.587 94.8947 155.041 93.1417V91.8256C155.763 91.7561 156.159 92.4141 156.753 92.6816C157.871 94.126 159.053 95.5169 160.177 96.9613L160.375 97.753C160.642 99.0048 161.033 100.321 160.107 101.375C159.059 102.498 157.737 101.904 156.555 101.508C155.343 101.122 154.134 100.727 152.928 100.321V100.321Z" fill="#F6D867"/>
<path d="M155.05 91.7559V92.2213C154.402 91.8261 153.718 91.4947 153.006 91.2316C150.963 90.5736 148.786 90.3757 146.945 89.1881C147.143 88.2679 148.197 88.5301 148.657 87.8721H151.225C151.359 88.7922 150.765 90.1136 152.477 89.9798C153.467 90.5041 154.654 90.5683 155.045 91.7559H155.05Z" fill="#F9DD6F"/>
<path d="M128.146 90.0463C128.472 88.0081 130.387 87.0826 131.11 85.3707C133.351 85.1728 135.325 86.3604 137.502 86.6868C138.556 87.3448 139.937 87.0826 140.926 88.0081C140.926 88.7303 140.338 89.0566 140.006 89.5863C139.214 90.7739 137.963 91.6298 137.502 93.0796C134.395 92.029 131.274 91.0179 128.141 90.0463H128.146Z" fill="#FBE27D"/>
<path d="M140.924 87.9457C139.934 87.0202 138.554 87.2824 137.5 86.6243C138.088 85.0409 139.479 85.7684 140.394 85.8326C143.229 86.2285 145.931 86.956 148.633 87.8762C148.237 88.4646 147.119 88.272 146.921 89.1922C144.941 88.7963 142.962 88.4004 140.924 87.9403V87.9457Z" fill="#F6D867"/>
<path d="M121.755 97.3594C124.724 97.7552 127.356 99.2692 130.32 99.4671C130.716 99.7346 131.176 100.061 131.572 100.323C125.184 107.903 118.727 115.409 112.335 122.989C110.489 123.118 109.435 121.278 107.659 121.278C106.867 120.224 105.68 119.758 104.695 119.1C105.551 116.265 107.852 114.489 109.569 112.317C113.458 107.502 117.54 102.827 121.499 98.0869C121.691 97.9532 121.691 97.6269 121.755 97.3594V97.3594Z" fill="#FBE27D"/>
<path d="M128.152 90.0467C131.314 91.0364 134.411 92.0261 137.573 93.0104C142.382 94.4602 147.256 95.8457 152.071 97.2902C154.173 97.8893 156.35 98.4831 158.458 99.1411C158.522 100.061 158.062 100.323 157.206 100.393C156.152 100.393 155.227 100.061 154.307 99.7349C145.678 96.5679 136.653 94.5939 127.89 91.8924C122.755 90.3089 121.299 93.2084 121.299 96.8996L120.508 96.7017C118.004 95.9795 117.94 95.8457 119.256 93.6738C120.048 92.422 120.641 91.0364 121.166 89.6509C121.562 88.597 122.091 88.2707 123.279 88.6665C124.857 89.255 126.505 89.5867 128.147 90.0467H128.152Z" fill="#EDC83D"/>
<path d="M112.344 122.983C118.737 115.413 125.194 107.897 131.581 100.322C132.507 100.257 133.362 100.717 134.218 100.98C138.3 102.167 142.457 103.355 146.539 104.607V105.002C146.271 106.912 144.757 108.03 143.639 109.352C138.83 115.145 133.887 120.88 129.013 126.61C128.719 126.914 128.491 127.276 128.344 127.673C128.197 128.07 128.133 128.493 128.157 128.915C127.301 128.648 126.445 128.327 125.589 128.059C123.179 127.337 120.763 126.634 118.341 125.952C116.297 125.026 114.061 124.566 112.349 122.988L112.344 122.983Z" fill="#FDE686"/>
<path d="M146.556 104.608C142.468 103.421 138.317 102.233 134.235 100.987C133.379 100.719 132.524 100.259 131.598 100.323C131.202 100.061 130.742 99.7347 130.346 99.4672V99.0072C131.138 98.4187 131.866 98.8092 132.524 99.0714C136.407 100.783 140.425 102.04 144.576 102.961C145.304 103.094 146.16 103.158 146.491 104.084C146.537 104.255 146.559 104.431 146.556 104.608V104.608ZM150.771 105.004C151.493 104.277 151.895 104.544 152.023 105.4C151.627 105.464 151.103 105.528 150.771 105.004ZM128.565 98.2154C127.185 97.7554 125.735 97.3595 124.355 96.8994C123.429 96.5677 122.311 96.1719 122.707 94.8559C123.033 93.6736 123.627 92.5555 125.141 92.6839C127.516 92.8819 129.822 93.4757 131.994 94.3958C130.416 94.9843 128.896 94.0641 127.318 94.3958C126.789 94.5295 126.131 94.3958 125.804 94.9843C125.473 95.7814 126.264 96.0435 126.591 96.5036C127.185 97.1616 128.501 97.0332 128.57 98.2154H128.565ZM132.85 94.3958C133.182 94.3958 133.508 94.46 133.706 94.7917C133.048 95.4497 132.984 94.9254 132.85 94.3958Z" fill="#F9DD6F"/>
<path d="M152.078 97.2969C147.269 95.8472 142.395 94.4616 137.586 93.0172C138.046 91.5621 139.298 90.7062 140.09 89.5239C140.416 88.9943 141.01 88.668 141.01 87.9404C142.989 88.4005 144.968 88.7964 147.007 89.2618C148.852 90.4441 151.094 90.5778 153.068 91.3C153.795 91.5675 154.453 91.8938 155.111 92.2897V93.1456C154.186 94.5954 152.672 95.5851 152.078 97.2969Z" fill="#FDE686"/>
<path d="M152.086 97.2956C152.68 95.5837 154.263 94.594 155.119 93.0801C156.697 94.8562 157.885 96.8355 158.479 99.1412C156.371 98.5474 154.199 97.8894 152.086 97.2956Z" fill="#FBE27D"/>
<path d="M348.081 77.5005L380.265 125.497C382.266 128.493 380.046 132.441 376.381 132.441H358.289C357.525 132.443 356.772 132.259 356.096 131.904C355.419 131.55 354.839 131.037 354.405 130.408L329.764 94.2823C329.377 93.7465 328.883 93.2964 328.314 92.9602C327.744 92.6241 327.111 92.4091 326.455 92.3288C325.799 92.2484 325.133 92.3044 324.499 92.4933C323.866 92.6822 323.278 92.9998 322.772 93.4264L309.789 104.436C309.007 105.038 308.489 105.921 308.344 106.897L303.797 128.702C303.577 129.742 303.003 130.672 302.172 131.336C301.342 131.999 300.307 132.354 299.245 132.34H282.821C279.826 132.34 277.712 129.772 278.269 126.99L298.913 27.5831C299.357 25.4433 301.24 23.9454 303.46 23.9454H319.777C322.772 23.9454 324.88 26.5132 324.324 29.295L317.888 60.5048C317 64.6775 322.221 67.5609 325.549 64.7845L372.166 25.0153C373.03 24.2717 374.128 23.8552 375.268 23.8384H392.697C397.025 23.8384 399.021 28.974 395.8 31.7558L348.97 71.6213C348.123 72.321 347.565 73.3082 347.401 74.3939C347.237 75.4796 347.479 76.5876 348.081 77.5059V77.5005ZM453.405 77.5005L485.594 125.497C487.589 128.488 485.369 132.441 481.71 132.441H463.505C462.741 132.443 461.989 132.259 461.312 131.904C460.636 131.55 460.055 131.037 459.621 130.408L434.981 94.3893C434.594 93.8535 434.1 93.4034 433.53 93.0672C432.961 92.7311 432.328 92.5161 431.672 92.4357C431.015 92.3554 430.35 92.4114 429.716 92.6003C429.082 92.7892 428.494 93.1068 427.989 93.5334L415.005 104.543C414.224 105.145 413.706 106.028 413.561 107.004L409.014 128.809C408.793 129.849 408.219 130.779 407.389 131.443C406.559 132.106 405.524 132.461 404.461 132.447H388.145C385.149 132.447 383.041 129.879 383.598 127.097L404.237 27.6901C404.681 25.5503 406.569 24.0524 408.789 24.0524H425.106C428.101 24.0524 430.209 26.6202 429.653 29.402L423.217 60.6118C422.329 64.7845 427.55 67.6679 430.878 64.8915L477.489 25.1223C478.355 24.3779 479.455 23.9614 480.597 23.9454H498.032C502.36 23.9454 504.355 29.081 501.135 31.8628L454.298 71.6213C453.452 72.321 452.894 73.3082 452.73 74.3939C452.566 75.4796 452.808 76.5876 453.41 77.5059L453.405 77.5005ZM505.575 49.1742H525.326C526.877 49.1742 528.102 50.5651 527.77 52.063L511.561 130.521C511.347 131.698 510.341 132.447 509.121 132.447H489.365C487.814 132.447 486.594 131.056 486.926 129.558L503.13 51.1001C503.349 49.9232 504.35 49.1742 505.569 49.1742H505.575ZM509.678 33.8903C506.901 31.4295 505.569 28.5407 505.569 25.0153C505.569 20.8479 507.121 17.4295 510.122 14.7547C513.225 11.9782 517.114 10.6943 522.105 10.6943C526.545 10.6943 530.097 11.8713 532.762 14.2251C535.538 16.5736 536.87 19.457 536.87 22.7738C536.87 27.2675 535.319 30.7876 532.211 33.5694C529.102 36.3512 525.106 37.6351 520.11 37.6351C515.894 37.5281 512.342 36.3512 509.678 33.8903V33.8903ZM623.331 51.7421L607.014 130.735C606.893 131.229 606.607 131.668 606.204 131.979C605.801 132.29 605.304 132.455 604.794 132.447H585.595C585.271 132.451 584.951 132.384 584.656 132.251C584.361 132.119 584.099 131.923 583.888 131.679C583.676 131.434 583.521 131.146 583.432 130.835C583.343 130.525 583.324 130.198 583.374 129.879C583.449 129.448 583.397 129.005 583.222 128.604C583.048 128.203 582.76 127.862 582.394 127.623C582.028 127.384 581.6 127.257 581.163 127.259C580.726 127.26 580.299 127.39 579.935 127.632C573.718 131.698 566.395 133.624 557.958 133.624C551.186 133.624 544.975 132.126 539.309 129.13C533.666 126.184 528.973 121.699 525.775 116.194C522.442 110.529 520.666 103.901 520.666 96.3152C520.666 87.1192 522.774 78.8915 526.995 71.5143C531.079 64.2721 537.065 58.284 544.306 54.1975C551.636 50.0044 559.946 47.8282 568.39 47.8903C579.603 47.8903 588.034 50.8861 593.587 56.7654C594.807 58.0493 597.027 57.4073 597.471 55.6954L598.471 50.8808C598.69 49.8162 599.578 49.1742 600.686 49.1742H621.111C622.555 49.1742 623.55 50.3512 623.331 51.7421V51.7421ZM578.822 110.214C582.691 107.9 585.813 104.522 587.815 100.483C589.922 96.3099 591.035 91.6129 591.035 86.2686C591.035 80.598 589.259 76.1096 585.814 72.7982C582.374 69.4815 577.49 67.8766 571.279 67.8766C566.395 67.8766 561.954 69.0535 558.071 71.4073C554.203 73.7223 551.081 77.1 549.078 81.1383C546.97 85.3057 545.863 90.008 545.863 95.3523C545.863 101.018 547.634 105.506 551.079 108.823C554.518 112.134 559.403 113.739 565.614 113.739C570.61 113.632 574.938 112.562 578.822 110.208V110.214Z" fill="#222F5A"/>
<path d="M718.228 34.6416C725.889 40.6279 729.773 48.8556 729.773 59.4372C729.773 68.5262 727.553 76.433 723.112 83.1682C718.672 89.9033 712.349 95.1406 704.137 98.773C695.92 102.411 686.264 104.23 675.169 104.23H656.745C652.861 104.23 649.528 106.899 648.753 110.532L645.2 127.741C644.425 131.379 641.092 134.054 637.208 134.054H627.664C622.561 134.054 618.677 129.56 619.672 124.639L638.872 32.0738C639.653 28.4361 642.98 25.7666 646.864 25.7666H685.713C699.697 25.7666 710.573 28.6554 718.228 34.6416V34.6416ZM696.257 78.0379C700.917 74.1861 703.356 68.7402 703.356 61.684C703.356 56.5484 701.58 52.7074 697.921 50.0325C694.369 47.4647 689.153 46.1808 682.38 46.1808H668.621C664.732 46.1808 661.404 48.8556 660.629 52.4934L656.076 74.4055C655.076 79.2148 658.965 83.8101 664.069 83.8101H676.164C684.932 83.8101 691.592 81.8842 696.257 78.0379ZM827.109 53.344L810.793 132.23C810.672 132.724 810.386 133.163 809.983 133.474C809.579 133.785 809.082 133.95 808.573 133.942H789.373C789.05 133.946 788.73 133.879 788.435 133.746C788.14 133.614 787.878 133.418 787.666 133.174C787.455 132.929 787.299 132.641 787.211 132.33C787.122 132.019 787.102 131.693 787.153 131.374C787.227 130.943 787.173 130.501 786.998 130.101C786.824 129.701 786.536 129.361 786.17 129.122C785.804 128.884 785.376 128.758 784.94 128.76C784.503 128.761 784.077 128.891 783.713 129.132C777.497 133.198 770.061 135.118 761.737 135.118C754.97 135.118 748.753 133.621 743.093 130.625C737.448 127.683 732.752 123.199 729.553 117.695C726.221 112.029 724.445 105.401 724.445 97.8155C724.445 88.6194 726.552 80.3917 730.773 73.0146C734.857 65.7718 740.843 59.7836 748.085 55.6978C755.415 51.5051 763.724 49.3289 772.169 49.3906C783.381 49.3906 791.818 52.3864 797.365 58.2656C798.585 59.5495 800.805 58.9076 801.249 57.1957L802.25 52.381C802.469 51.3111 803.357 50.6691 804.47 50.6691H824.889C826.334 50.7761 827.334 52.06 827.109 53.344V53.344ZM782.606 111.815C786.443 109.514 789.557 106.181 791.593 102.197C793.701 98.0241 794.814 93.3218 794.814 87.9775C794.814 82.3122 793.038 77.8239 789.598 74.5125C786.158 71.1957 781.274 69.5908 775.057 69.5908C770.173 69.5908 765.733 70.7677 761.849 73.1215C758.012 75.4246 754.896 78.7567 752.856 82.7402C750.749 86.9129 749.641 91.6152 749.641 96.9595C749.641 102.625 751.417 107.113 754.857 110.425C758.297 113.741 763.181 115.346 769.397 115.346C774.389 115.346 778.722 114.169 782.606 111.815ZM919.899 50.7815C923.114 50.7815 925.115 54.2053 923.339 56.7677L869.73 139.607C863.514 149.332 857.522 155.961 851.637 159.705C845.758 163.445 838.654 165.264 830.217 165.264C825.665 165.264 821.337 164.622 817.009 163.231C814.457 162.375 812.125 161.519 810.242 160.342C809.775 160.078 809.368 159.721 809.045 159.293C808.722 158.864 808.491 158.374 808.366 157.853C808.242 157.331 808.225 156.79 808.319 156.262C808.412 155.734 808.613 155.231 808.91 154.784L816.009 144.095C816.605 143.224 817.507 142.608 818.535 142.371C819.563 142.133 820.644 142.29 821.562 142.811C824.67 144.737 828.329 145.593 832.213 145.593C835.433 145.593 838.21 144.844 840.542 143.239C842.869 141.741 845.314 139.072 847.754 135.439L847.866 135.332C848.31 134.476 848.529 133.514 848.31 132.551L829.773 55.5908C829.217 53.13 831.106 50.7761 833.77 50.7761H850.418C852.306 50.7761 853.97 52.06 854.414 53.8789L864.402 97.8155C865.177 101.234 869.949 102.09 871.838 98.9924L901.362 52.6004C901.736 52.0243 902.245 51.5479 902.844 51.2124C903.443 50.8768 904.115 50.6922 904.802 50.6745H919.899V50.7815V50.7815Z" fill="#F11C33"/>
</svg>
